solid OpenSCAD_Model
  facet normal -0.991445 -0.130529 0
    outer loop
      vertex 2.905 1.905 -3
      vertex 2.87092 2.16382 0
      vertex 2.87092 2.16382 -3
    endloop
  endfacet
  facet normal -0.991445 -0.130529 0
    outer loop
      vertex 2.87092 2.16382 0
      vertex 2.905 1.905 -3
      vertex 2.905 1.905 0
    endloop
  endfacet
  facet normal 0.991445 0.130525 0
    outer loop
      vertex 0.939074 1.64618 0
      vertex 0.905 1.905 -3
      vertex 0.905 1.905 0
    endloop
  endfacet
  facet normal 0.991445 0.130525 0
    outer loop
      vertex 0.905 1.905 -3
      vertex 0.939074 1.64618 0
      vertex 0.939074 1.64618 -3
    endloop
  endfacet
  facet normal 0.130528 -0.991445 0
    outer loop
      vertex 1.64618 2.87092 -3
      vertex 1.905 2.905 0
      vertex 1.64618 2.87092 0
    endloop
  endfacet
  facet normal 0.130528 -0.991445 0
    outer loop
      vertex 1.905 2.905 0
      vertex 1.64618 2.87092 -3
      vertex 1.905 2.905 -3
    endloop
  endfacet
  facet normal 0.608763 0.793352 -0
    outer loop
      vertex 1.405 1.03897 -3
      vertex 1.19789 1.19789 0
      vertex 1.405 1.03897 0
    endloop
  endfacet
  facet normal 0.608763 0.793352 0
    outer loop
      vertex 1.19789 1.19789 0
      vertex 1.405 1.03897 -3
      vertex 1.19789 1.19789 -3
    endloop
  endfacet
  facet normal -0.608761 -0.793354 0
    outer loop
      vertex 2.405 2.77102 -3
      vertex 2.61211 2.61211 0
      vertex 2.405 2.77102 0
    endloop
  endfacet
  facet normal -0.608761 -0.793354 -0
    outer loop
      vertex 2.61211 2.61211 0
      vertex 2.405 2.77102 -3
      vertex 2.61211 2.61211 -3
    endloop
  endfacet
  facet normal -0.92388 -0.382682 0
    outer loop
      vertex 2.87092 2.16382 -3
      vertex 2.77102 2.405 0
      vertex 2.77102 2.405 -3
    endloop
  endfacet
  facet normal -0.92388 -0.382682 0
    outer loop
      vertex 2.77102 2.405 0
      vertex 2.87092 2.16382 -3
      vertex 2.87092 2.16382 0
    endloop
  endfacet
  facet normal 0.793352 -0.608763 0
    outer loop
      vertex 1.03897 2.405 0
      vertex 1.19789 2.61211 -3
      vertex 1.19789 2.61211 0
    endloop
  endfacet
  facet normal 0.793352 -0.608763 0
    outer loop
      vertex 1.19789 2.61211 -3
      vertex 1.03897 2.405 0
      vertex 1.03897 2.405 -3
    endloop
  endfacet
  facet normal 0.92388 -0.382682 0
    outer loop
      vertex 0.939074 2.16382 0
      vertex 1.03897 2.405 -3
      vertex 1.03897 2.405 0
    endloop
  endfacet
  facet normal 0.92388 -0.382682 0
    outer loop
      vertex 1.03897 2.405 -3
      vertex 0.939074 2.16382 0
      vertex 0.939074 2.16382 -3
    endloop
  endfacet
  facet normal 0.382684 -0.923879 0
    outer loop
      vertex 1.405 2.77102 -3
      vertex 1.64618 2.87092 0
      vertex 1.405 2.77102 0
    endloop
  endfacet
  facet normal 0.382684 -0.923879 0
    outer loop
      vertex 1.64618 2.87092 0
      vertex 1.405 2.77102 -3
      vertex 1.64618 2.87092 -3
    endloop
  endfacet
  facet normal -0.382682 0.92388 0
    outer loop
      vertex 2.405 1.03897 -3
      vertex 2.16382 0.939074 0
      vertex 2.405 1.03897 0
    endloop
  endfacet
  facet normal -0.382682 0.92388 0
    outer loop
      vertex 2.16382 0.939074 0
      vertex 2.405 1.03897 -3
      vertex 2.16382 0.939074 -3
    endloop
  endfacet
  facet normal -0.793354 0.608761 0
    outer loop
      vertex 2.61211 1.19789 -3
      vertex 2.77102 1.405 0
      vertex 2.77102 1.405 -3
    endloop
  endfacet
  facet normal -0.793354 0.608761 0
    outer loop
      vertex 2.77102 1.405 0
      vertex 2.61211 1.19789 -3
      vertex 2.61211 1.19789 0
    endloop
  endfacet
  facet normal -0.923879 0.382684 0
    outer loop
      vertex 2.77102 1.405 -3
      vertex 2.87092 1.64618 0
      vertex 2.87092 1.64618 -3
    endloop
  endfacet
  facet normal -0.923879 0.382684 0
    outer loop
      vertex 2.87092 1.64618 0
      vertex 2.77102 1.405 -3
      vertex 2.77102 1.405 0
    endloop
  endfacet
  facet normal 0.382684 0.923879 -0
    outer loop
      vertex 1.64618 0.939074 -3
      vertex 1.405 1.03897 0
      vertex 1.64618 0.939074 0
    endloop
  endfacet
  facet normal 0.382684 0.923879 0
    outer loop
      vertex 1.405 1.03897 0
      vertex 1.64618 0.939074 -3
      vertex 1.405 1.03897 -3
    endloop
  endfacet
  facet normal 0.923879 0.382684 0
    outer loop
      vertex 1.03897 1.405 0
      vertex 0.939074 1.64618 -3
      vertex 0.939074 1.64618 0
    endloop
  endfacet
  facet normal 0.923879 0.382684 0
    outer loop
      vertex 0.939074 1.64618 -3
      vertex 1.03897 1.405 0
      vertex 1.03897 1.405 -3
    endloop
  endfacet
  facet normal -0.793354 -0.608761 0
    outer loop
      vertex 2.77102 2.405 -3
      vertex 2.61211 2.61211 0
      vertex 2.61211 2.61211 -3
    endloop
  endfacet
  facet normal -0.793354 -0.608761 0
    outer loop
      vertex 2.61211 2.61211 0
      vertex 2.77102 2.405 -3
      vertex 2.77102 2.405 0
    endloop
  endfacet
  facet normal -0.130529 -0.991445 0
    outer loop
      vertex 1.905 2.905 -3
      vertex 2.16382 2.87092 0
      vertex 1.905 2.905 0
    endloop
  endfacet
  facet normal -0.130529 -0.991445 -0
    outer loop
      vertex 2.16382 2.87092 0
      vertex 1.905 2.905 -3
      vertex 2.16382 2.87092 -3
    endloop
  endfacet
  facet normal -0.382682 -0.92388 0
    outer loop
      vertex 2.16382 2.87092 -3
      vertex 2.405 2.77102 0
      vertex 2.16382 2.87092 0
    endloop
  endfacet
  facet normal -0.382682 -0.92388 -0
    outer loop
      vertex 2.405 2.77102 0
      vertex 2.16382 2.87092 -3
      vertex 2.405 2.77102 -3
    endloop
  endfacet
  facet normal 0 0 -1
    outer loop
      vertex 71 -6 -3
      vertex 77 0 -3
      vertex 76.7955 -1.55292 -3
    endloop
  endfacet
  facet normal 0 0 -1
    outer loop
      vertex 77 0 -3
      vertex 49.761 29.345 -3
      vertex 77 40 -3
    endloop
  endfacet
  facet normal 0 0 -1
    outer loop
      vertex 71 -6 -3
      vertex 76.7955 -1.55292 -3
      vertex 76.1962 -3 -3
    endloop
  endfacet
  facet normal 0 -0 -1
    outer loop
      vertex 49.8609 29.5862 -3
      vertex 77 40 -3
      vertex 49.761 29.345 -3
    endloop
  endfacet
  facet normal 0 0 -1
    outer loop
      vertex 71 -6 -3
      vertex 76.1962 -3 -3
      vertex 75.2426 -4.24265 -3
    endloop
  endfacet
  facet normal 0 -0 -1
    outer loop
      vertex 49.895 29.845 -3
      vertex 77 40 -3
      vertex 49.8609 29.5862 -3
    endloop
  endfacet
  facet normal 0 0 -1
    outer loop
      vertex 71 -6 -3
      vertex 75.2426 -4.24265 -3
      vertex 74 -5.19615 -3
    endloop
  endfacet
  facet normal 0 0 -1
    outer loop
      vertex 49.8609 30.1038 -3
      vertex 77 40 -3
      vertex 49.895 29.845 -3
    endloop
  endfacet
  facet normal 0 0 -1
    outer loop
      vertex 71 -6 -3
      vertex 74 -5.19615 -3
      vertex 72.5529 -5.79555 -3
    endloop
  endfacet
  facet normal 0 0 -1
    outer loop
      vertex 76.7955 41.5529 -3
      vertex 71 46 -3
      vertex 76.1962 43 -3
    endloop
  endfacet
  facet normal -0 0 -1
    outer loop
      vertex 77 0 -3
      vertex 71 -6 -3
      vertex 49.395 28.979 -3
    endloop
  endfacet
  facet normal 0 0 -1
    outer loop
      vertex 76.1962 43 -3
      vertex 71 46 -3
      vertex 75.2426 44.2426 -3
    endloop
  endfacet
  facet normal 0 0 -1
    outer loop
      vertex 74 45.1962 -3
      vertex 71 46 -3
      vertex 72.5529 45.7955 -3
    endloop
  endfacet
  facet normal 0 0 -1
    outer loop
      vertex 75.2426 44.2426 -3
      vertex 71 46 -3
      vertex 74 45.1962 -3
    endloop
  endfacet
  facet normal 0 0 -1
    outer loop
      vertex 77 40 -3
      vertex 71 46 -3
      vertex 76.7955 41.5529 -3
    endloop
  endfacet
  facet normal 0 0 -1
    outer loop
      vertex 77 0 -3
      vertex 49.6021 29.1379 -3
      vertex 49.761 29.345 -3
    endloop
  endfacet
  facet normal 0 0 -1
    outer loop
      vertex 77 0 -3
      vertex 49.395 28.979 -3
      vertex 49.6021 29.1379 -3
    endloop
  endfacet
  facet normal 0 0 -1
    outer loop
      vertex 71 -6 -3
      vertex 49.1538 28.8791 -3
      vertex 49.395 28.979 -3
    endloop
  endfacet
  facet normal 0 0 -1
    outer loop
      vertex 71 -6 -3
      vertex 48.895 28.845 -3
      vertex 49.1538 28.8791 -3
    endloop
  endfacet
  facet normal 0 0 -1
    outer loop
      vertex 71 -6 -3
      vertex 48.6362 28.8791 -3
      vertex 48.895 28.845 -3
    endloop
  endfacet
  facet normal 0 0 -1
    outer loop
      vertex 2.87092 1.64618 -3
      vertex 48.6362 28.8791 -3
      vertex 71 -6 -3
    endloop
  endfacet
  facet normal 0 -0 -1
    outer loop
      vertex 2.905 1.905 -3
      vertex 48.6362 28.8791 -3
      vertex 2.87092 1.64618 -3
    endloop
  endfacet
  facet normal -0 0 -1
    outer loop
      vertex 48.6362 28.8791 -3
      vertex 2.905 1.905 -3
      vertex 48.395 28.979 -3
    endloop
  endfacet
  facet normal -0 0 -1
    outer loop
      vertex 48.1879 29.1379 -3
      vertex 2.77102 2.405 -3
      vertex 48.029 29.345 -3
    endloop
  endfacet
  facet normal 0 0 -1
    outer loop
      vertex 2.77102 2.405 -3
      vertex 48.1879 29.1379 -3
      vertex 2.87092 2.16382 -3
    endloop
  endfacet
  facet normal 0 0 -1
    outer loop
      vertex 2.87092 2.16382 -3
      vertex 48.395 28.979 -3
      vertex 2.905 1.905 -3
    endloop
  endfacet
  facet normal -0 0 -1
    outer loop
      vertex 48.395 28.979 -3
      vertex 2.87092 2.16382 -3
      vertex 48.1879 29.1379 -3
    endloop
  endfacet
  facet normal 0 0 -1
    outer loop
      vertex 71 -6 -3
      vertex 2.77102 1.405 -3
      vertex 2.87092 1.64618 -3
    endloop
  endfacet
  facet normal 0 0 -1
    outer loop
      vertex 0 -6 -3
      vertex 2.77102 1.405 -3
      vertex 71 -6 -3
    endloop
  endfacet
  facet normal 0 0 -1
    outer loop
      vertex 2.77102 1.405 -3
      vertex 0 -6 -3
      vertex 2.61211 1.19789 -3
    endloop
  endfacet
  facet normal 0 0 -1
    outer loop
      vertex 2.61211 1.19789 -3
      vertex 0 -6 -3
      vertex 2.405 1.03897 -3
    endloop
  endfacet
  facet normal 0 0 -1
    outer loop
      vertex 2.405 1.03897 -3
      vertex 0 -6 -3
      vertex 2.16382 0.939074 -3
    endloop
  endfacet
  facet normal 0 0 -1
    outer loop
      vertex -4.24265 -4.24265 -3
      vertex 1.19789 1.19789 -3
      vertex -3 -5.19615 -3
    endloop
  endfacet
  facet normal -0 0 -1
    outer loop
      vertex 1.405 1.03897 -3
      vertex -3 -5.19615 -3
      vertex 1.19789 1.19789 -3
    endloop
  endfacet
  facet normal 0 0 -1
    outer loop
      vertex -3 -5.19615 -3
      vertex 1.405 1.03897 -3
      vertex -1.55292 -5.79555 -3
    endloop
  endfacet
  facet normal 0 0 -1
    outer loop
      vertex -1.55292 -5.79555 -3
      vertex 1.405 1.03897 -3
      vertex 0 -6 -3
    endloop
  endfacet
  facet normal -0 0 -1
    outer loop
      vertex 1.64618 0.939074 -3
      vertex 0 -6 -3
      vertex 1.405 1.03897 -3
    endloop
  endfacet
  facet normal -0 0 -1
    outer loop
      vertex 1.905 0.905 -3
      vertex 0 -6 -3
      vertex 1.64618 0.939074 -3
    endloop
  endfacet
  facet normal 0 0 -1
    outer loop
      vertex 2.16382 0.939074 -3
      vertex 0 -6 -3
      vertex 1.905 0.905 -3
    endloop
  endfacet
  facet normal -0 0 -1
    outer loop
      vertex 77 40 -3
      vertex 49.8609 30.1038 -3
      vertex 71 46 -3
    endloop
  endfacet
  facet normal 0 0 -1
    outer loop
      vertex 49.761 30.345 -3
      vertex 71 46 -3
      vertex 49.8609 30.1038 -3
    endloop
  endfacet
  facet normal 0 0 -1
    outer loop
      vertex 49.6021 30.5521 -3
      vertex 71 46 -3
      vertex 49.761 30.345 -3
    endloop
  endfacet
  facet normal 0 0 -1
    outer loop
      vertex 49.395 30.711 -3
      vertex 71 46 -3
      vertex 49.6021 30.5521 -3
    endloop
  endfacet
  facet normal 0 0 -1
    outer loop
      vertex 49.1538 30.8109 -3
      vertex 71 46 -3
      vertex 49.395 30.711 -3
    endloop
  endfacet
  facet normal 0 0 -1
    outer loop
      vertex 48.895 30.845 -3
      vertex 71 46 -3
      vertex 49.1538 30.8109 -3
    endloop
  endfacet
  facet normal 0 0 -1
    outer loop
      vertex 48.6362 30.8109 -3
      vertex 71 46 -3
      vertex 48.895 30.845 -3
    endloop
  endfacet
  facet normal 0 0 -1
    outer loop
      vertex 0 46 -3
      vertex 48.6362 30.8109 -3
      vertex 48.395 30.711 -3
    endloop
  endfacet
  facet normal 0 0 -1
    outer loop
      vertex 2.61211 2.61211 -3
      vertex 48.029 29.345 -3
      vertex 2.77102 2.405 -3
    endloop
  endfacet
  facet normal -0 0 -1
    outer loop
      vertex 48.029 29.345 -3
      vertex 2.61211 2.61211 -3
      vertex 47.9291 29.5862 -3
    endloop
  endfacet
  facet normal 0 0 -1
    outer loop
      vertex 0 46 -3
      vertex 47.9291 29.5862 -3
      vertex 2.61211 2.61211 -3
    endloop
  endfacet
  facet normal 0 0 -1
    outer loop
      vertex 47.9291 29.5862 -3
      vertex 0 46 -3
      vertex 47.895 29.845 -3
    endloop
  endfacet
  facet normal 0 0 -1
    outer loop
      vertex 47.895 29.845 -3
      vertex 0 46 -3
      vertex 47.9291 30.1038 -3
    endloop
  endfacet
  facet normal 0 0 -1
    outer loop
      vertex 47.9291 30.1038 -3
      vertex 0 46 -3
      vertex 48.029 30.345 -3
    endloop
  endfacet
  facet normal 0 0 -1
    outer loop
      vertex 48.029 30.345 -3
      vertex 0 46 -3
      vertex 48.1879 30.5521 -3
    endloop
  endfacet
  facet normal 0 0 -1
    outer loop
      vertex 48.1879 30.5521 -3
      vertex 0 46 -3
      vertex 48.395 30.711 -3
    endloop
  endfacet
  facet normal 0 0 -1
    outer loop
      vertex 0 46 -3
      vertex 2.61211 2.61211 -3
      vertex 2.405 2.77102 -3
    endloop
  endfacet
  facet normal 0 0 -1
    outer loop
      vertex -6 40 -3
      vertex 2.405 2.77102 -3
      vertex 2.16382 2.87092 -3
    endloop
  endfacet
  facet normal 0 0 -1
    outer loop
      vertex -6 40 -3
      vertex 2.16382 2.87092 -3
      vertex 1.905 2.905 -3
    endloop
  endfacet
  facet normal 0 0 -1
    outer loop
      vertex -6 40 -3
      vertex 1.905 2.905 -3
      vertex 1.64618 2.87092 -3
    endloop
  endfacet
  facet normal 0 0 -1
    outer loop
      vertex -6 40 -3
      vertex 1.64618 2.87092 -3
      vertex 1.405 2.77102 -3
    endloop
  endfacet
  facet normal 0 0 -1
    outer loop
      vertex 48.6362 30.8109 -3
      vertex 0 46 -3
      vertex 71 46 -3
    endloop
  endfacet
  facet normal 0 0 -1
    outer loop
      vertex -6 0 -3
      vertex 1.405 2.77102 -3
      vertex 1.19789 2.61211 -3
    endloop
  endfacet
  facet normal 0 0 -1
    outer loop
      vertex -6 0 -3
      vertex 1.19789 2.61211 -3
      vertex 1.03897 2.405 -3
    endloop
  endfacet
  facet normal 0 0 -1
    outer loop
      vertex -6 0 -3
      vertex 1.03897 2.405 -3
      vertex 0.939074 2.16382 -3
    endloop
  endfacet
  facet normal 0 0 -1
    outer loop
      vertex -6 0 -3
      vertex 0.939074 2.16382 -3
      vertex 0.905 1.905 -3
    endloop
  endfacet
  facet normal 0 0 -1
    outer loop
      vertex -5.19615 -3 -3
      vertex 1.19789 1.19789 -3
      vertex -4.24265 -4.24265 -3
    endloop
  endfacet
  facet normal -0 0 -1
    outer loop
      vertex 1.19789 1.19789 -3
      vertex -5.19615 -3 -3
      vertex 1.03897 1.405 -3
    endloop
  endfacet
  facet normal -0 0 -1
    outer loop
      vertex 1.405 2.77102 -3
      vertex -6 0 -3
      vertex -6 40 -3
    endloop
  endfacet
  facet normal 0 0 -1
    outer loop
      vertex -5.79555 -1.55292 -3
      vertex 1.03897 1.405 -3
      vertex -5.19615 -3 -3
    endloop
  endfacet
  facet normal 0 0 -1
    outer loop
      vertex 2.405 2.77102 -3
      vertex -6 40 -3
      vertex 0 46 -3
    endloop
  endfacet
  facet normal 0 0 -1
    outer loop
      vertex -6 0 -3
      vertex 1.03897 1.405 -3
      vertex -5.79555 -1.55292 -3
    endloop
  endfacet
  facet normal 0 0 -1
    outer loop
      vertex 0 46 -3
      vertex -6 40 -3
      vertex -1.55292 45.7955 -3
    endloop
  endfacet
  facet normal -0 0 -1
    outer loop
      vertex 1.03897 1.405 -3
      vertex -6 0 -3
      vertex 0.939074 1.64618 -3
    endloop
  endfacet
  facet normal 0 0 -1
    outer loop
      vertex -1.55292 45.7955 -3
      vertex -6 40 -3
      vertex -3 45.1962 -3
    endloop
  endfacet
  facet normal -0 0 -1
    outer loop
      vertex 0.939074 1.64618 -3
      vertex -6 0 -3
      vertex 0.905 1.905 -3
    endloop
  endfacet
  facet normal 0 0 -1
    outer loop
      vertex -3 45.1962 -3
      vertex -6 40 -3
      vertex -4.24265 44.2426 -3
    endloop
  endfacet
  facet normal 0 0 -1
    outer loop
      vertex -4.24265 44.2426 -3
      vertex -6 40 -3
      vertex -5.19615 43 -3
    endloop
  endfacet
  facet normal 0 0 -1
    outer loop
      vertex -5.19615 43 -3
      vertex -6 40 -3
      vertex -5.79555 41.5529 -3
    endloop
  endfacet
  facet normal 0.991445 -0.130525 0
    outer loop
      vertex 0.905 1.905 0
      vertex 0.939074 2.16382 -3
      vertex 0.939074 2.16382 0
    endloop
  endfacet
  facet normal 0.991445 -0.130525 0
    outer loop
      vertex 0.939074 2.16382 -3
      vertex 0.905 1.905 0
      vertex 0.905 1.905 -3
    endloop
  endfacet
  facet normal 0.608761 -0.793354 0
    outer loop
      vertex 1.19789 2.61211 -3
      vertex 1.405 2.77102 0
      vertex 1.19789 2.61211 0
    endloop
  endfacet
  facet normal 0.608761 -0.793354 0
    outer loop
      vertex 1.405 2.77102 0
      vertex 1.19789 2.61211 -3
      vertex 1.405 2.77102 -3
    endloop
  endfacet
  facet normal -0.991445 0.130528 0
    outer loop
      vertex 2.87092 1.64618 -3
      vertex 2.905 1.905 0
      vertex 2.905 1.905 -3
    endloop
  endfacet
  facet normal -0.991445 0.130528 0
    outer loop
      vertex 2.905 1.905 0
      vertex 2.87092 1.64618 -3
      vertex 2.87092 1.64618 0
    endloop
  endfacet
  facet normal -0.608763 0.793352 0
    outer loop
      vertex 2.61211 1.19789 -3
      vertex 2.405 1.03897 0
      vertex 2.61211 1.19789 0
    endloop
  endfacet
  facet normal -0.608763 0.793352 0
    outer loop
      vertex 2.405 1.03897 0
      vertex 2.61211 1.19789 -3
      vertex 2.405 1.03897 -3
    endloop
  endfacet
  facet normal 0.130525 0.991445 -0
    outer loop
      vertex 1.905 0.905 -3
      vertex 1.64618 0.939074 0
      vertex 1.905 0.905 0
    endloop
  endfacet
  facet normal 0.130525 0.991445 0
    outer loop
      vertex 1.64618 0.939074 0
      vertex 1.905 0.905 -3
      vertex 1.64618 0.939074 -3
    endloop
  endfacet
  facet normal 0.793352 0.608763 0
    outer loop
      vertex 1.19789 1.19789 0
      vertex 1.03897 1.405 -3
      vertex 1.03897 1.405 0
    endloop
  endfacet
  facet normal 0.793352 0.608763 0
    outer loop
      vertex 1.03897 1.405 -3
      vertex 1.19789 1.19789 0
      vertex 1.19789 1.19789 -3
    endloop
  endfacet
  facet normal -0.130525 0.991445 0
    outer loop
      vertex 2.16382 0.939074 -3
      vertex 1.905 0.905 0
      vertex 2.16382 0.939074 0
    endloop
  endfacet
  facet normal -0.130525 0.991445 0
    outer loop
      vertex 1.905 0.905 0
      vertex 2.16382 0.939074 -3
      vertex 1.905 0.905 -3
    endloop
  endfacet
  facet normal -0.991444 -0.130535 0
    outer loop
      vertex 49.895 29.845 -3
      vertex 49.8609 30.1038 0
      vertex 49.8609 30.1038 -3
    endloop
  endfacet
  facet normal -0.991444 -0.130535 0
    outer loop
      vertex 49.8609 30.1038 0
      vertex 49.895 29.845 -3
      vertex 49.895 29.845 0
    endloop
  endfacet
  facet normal 0.991446 -0.130521 0
    outer loop
      vertex 47.895 29.845 0
      vertex 47.9291 30.1038 -3
      vertex 47.9291 30.1038 0
    endloop
  endfacet
  facet normal 0.991446 -0.130521 0
    outer loop
      vertex 47.9291 30.1038 -3
      vertex 47.895 29.845 0
      vertex 47.895 29.845 -3
    endloop
  endfacet
  facet normal 0.130528 -0.991445 0
    outer loop
      vertex 48.6362 30.8109 -3
      vertex 48.895 30.845 0
      vertex 48.6362 30.8109 0
    endloop
  endfacet
  facet normal 0.130528 -0.991445 0
    outer loop
      vertex 48.895 30.845 0
      vertex 48.6362 30.8109 -3
      vertex 48.895 30.845 -3
    endloop
  endfacet
  facet normal 0.793356 0.608758 0
    outer loop
      vertex 48.1879 29.1379 0
      vertex 48.029 29.345 -3
      vertex 48.029 29.345 0
    endloop
  endfacet
  facet normal 0.793356 0.608758 0
    outer loop
      vertex 48.029 29.345 -3
      vertex 48.1879 29.1379 0
      vertex 48.1879 29.1379 -3
    endloop
  endfacet
  facet normal -0.608771 -0.793346 0
    outer loop
      vertex 49.395 30.711 -3
      vertex 49.6021 30.5521 0
      vertex 49.395 30.711 0
    endloop
  endfacet
  facet normal -0.608771 -0.793346 -0
    outer loop
      vertex 49.6021 30.5521 0
      vertex 49.395 30.711 -3
      vertex 49.6021 30.5521 -3
    endloop
  endfacet
  facet normal -0.382675 -0.923883 0
    outer loop
      vertex 49.1538 30.8109 -3
      vertex 49.395 30.711 0
      vertex 49.1538 30.8109 0
    endloop
  endfacet
  facet normal -0.382675 -0.923883 -0
    outer loop
      vertex 49.395 30.711 0
      vertex 49.1538 30.8109 -3
      vertex 49.395 30.711 -3
    endloop
  endfacet
  facet normal 0.608764 -0.793351 0
    outer loop
      vertex 48.1879 30.5521 -3
      vertex 48.395 30.711 0
      vertex 48.1879 30.5521 0
    endloop
  endfacet
  facet normal 0.608764 -0.793351 0
    outer loop
      vertex 48.395 30.711 0
      vertex 48.1879 30.5521 -3
      vertex 48.395 30.711 -3
    endloop
  endfacet
  facet normal 0.38268 -0.923881 0
    outer loop
      vertex 48.395 30.711 -3
      vertex 48.6362 30.8109 0
      vertex 48.395 30.711 0
    endloop
  endfacet
  facet normal 0.38268 -0.923881 0
    outer loop
      vertex 48.6362 30.8109 0
      vertex 48.395 30.711 -3
      vertex 48.6362 30.8109 -3
    endloop
  endfacet
  facet normal 0.608764 0.793351 -0
    outer loop
      vertex 48.395 28.979 -3
      vertex 48.1879 29.1379 0
      vertex 48.395 28.979 0
    endloop
  endfacet
  facet normal 0.608764 0.793351 0
    outer loop
      vertex 48.1879 29.1379 0
      vertex 48.395 28.979 -3
      vertex 48.1879 29.1379 -3
    endloop
  endfacet
  facet normal 0.991445 0.130522 0
    outer loop
      vertex 47.9291 29.5862 0
      vertex 47.895 29.845 -3
      vertex 47.895 29.845 0
    endloop
  endfacet
  facet normal 0.991445 0.130522 0
    outer loop
      vertex 47.895 29.845 -3
      vertex 47.9291 29.5862 0
      vertex 47.9291 29.5862 -3
    endloop
  endfacet
  facet normal -0.793349 -0.608768 0
    outer loop
      vertex 49.761 30.345 -3
      vertex 49.6021 30.5521 0
      vertex 49.6021 30.5521 -3
    endloop
  endfacet
  facet normal -0.793349 -0.608768 0
    outer loop
      vertex 49.6021 30.5521 0
      vertex 49.761 30.345 -3
      vertex 49.761 30.345 0
    endloop
  endfacet
  facet normal -0.923881 -0.38268 0
    outer loop
      vertex 49.8609 30.1038 -3
      vertex 49.761 30.345 0
      vertex 49.761 30.345 -3
    endloop
  endfacet
  facet normal -0.923881 -0.38268 0
    outer loop
      vertex 49.761 30.345 0
      vertex 49.8609 30.1038 -3
      vertex 49.8609 30.1038 0
    endloop
  endfacet
  facet normal -0.13053 -0.991444 0
    outer loop
      vertex 48.895 30.845 -3
      vertex 49.1538 30.8109 0
      vertex 48.895 30.845 0
    endloop
  endfacet
  facet normal -0.13053 -0.991444 -0
    outer loop
      vertex 49.1538 30.8109 0
      vertex 48.895 30.845 -3
      vertex 49.1538 30.8109 -3
    endloop
  endfacet
  facet normal 0.793356 -0.608758 0
    outer loop
      vertex 48.029 30.345 0
      vertex 48.1879 30.5521 -3
      vertex 48.1879 30.5521 0
    endloop
  endfacet
  facet normal 0.793356 -0.608758 0
    outer loop
      vertex 48.1879 30.5521 -3
      vertex 48.029 30.345 0
      vertex 48.029 30.345 -3
    endloop
  endfacet
  facet normal 0.923876 -0.382693 0
    outer loop
      vertex 47.9291 30.1038 0
      vertex 48.029 30.345 -3
      vertex 48.029 30.345 0
    endloop
  endfacet
  facet normal 0.923876 -0.382693 0
    outer loop
      vertex 48.029 30.345 -3
      vertex 47.9291 30.1038 0
      vertex 47.9291 30.1038 -3
    endloop
  endfacet
  facet normal -0.13053 0.991444 0
    outer loop
      vertex 49.1538 28.8791 -3
      vertex 48.895 28.845 0
      vertex 49.1538 28.8791 0
    endloop
  endfacet
  facet normal -0.13053 0.991444 0
    outer loop
      vertex 48.895 28.845 0
      vertex 49.1538 28.8791 -3
      vertex 48.895 28.845 -3
    endloop
  endfacet
  facet normal -0.608771 0.793346 0
    outer loop
      vertex 49.6021 29.1379 -3
      vertex 49.395 28.979 0
      vertex 49.6021 29.1379 0
    endloop
  endfacet
  facet normal -0.608771 0.793346 0
    outer loop
      vertex 49.395 28.979 0
      vertex 49.6021 29.1379 -3
      vertex 49.395 28.979 -3
    endloop
  endfacet
  facet normal 0.38268 0.923881 -0
    outer loop
      vertex 48.6362 28.8791 -3
      vertex 48.395 28.979 0
      vertex 48.6362 28.8791 0
    endloop
  endfacet
  facet normal 0.38268 0.923881 0
    outer loop
      vertex 48.395 28.979 0
      vertex 48.6362 28.8791 -3
      vertex 48.395 28.979 -3
    endloop
  endfacet
  facet normal 0.923877 0.38269 0
    outer loop
      vertex 48.029 29.345 0
      vertex 47.9291 29.5862 -3
      vertex 47.9291 29.5862 0
    endloop
  endfacet
  facet normal 0.923877 0.38269 0
    outer loop
      vertex 47.9291 29.5862 -3
      vertex 48.029 29.345 0
      vertex 48.029 29.345 -3
    endloop
  endfacet
  facet normal -0.382675 0.923883 0
    outer loop
      vertex 49.395 28.979 -3
      vertex 49.1538 28.8791 0
      vertex 49.395 28.979 0
    endloop
  endfacet
  facet normal -0.382675 0.923883 0
    outer loop
      vertex 49.1538 28.8791 0
      vertex 49.395 28.979 -3
      vertex 49.1538 28.8791 -3
    endloop
  endfacet
  facet normal -0.923882 0.382678 0
    outer loop
      vertex 49.761 29.345 -3
      vertex 49.8609 29.5862 0
      vertex 49.8609 29.5862 -3
    endloop
  endfacet
  facet normal -0.923882 0.382678 0
    outer loop
      vertex 49.8609 29.5862 0
      vertex 49.761 29.345 -3
      vertex 49.761 29.345 0
    endloop
  endfacet
  facet normal -0.793349 0.608768 0
    outer loop
      vertex 49.6021 29.1379 -3
      vertex 49.761 29.345 0
      vertex 49.761 29.345 -3
    endloop
  endfacet
  facet normal -0.793349 0.608768 0
    outer loop
      vertex 49.761 29.345 0
      vertex 49.6021 29.1379 -3
      vertex 49.6021 29.1379 0
    endloop
  endfacet
  facet normal -0.991444 0.130536 0
    outer loop
      vertex 49.8609 29.5862 -3
      vertex 49.895 29.845 0
      vertex 49.895 29.845 -3
    endloop
  endfacet
  facet normal -0.991444 0.130536 0
    outer loop
      vertex 49.895 29.845 0
      vertex 49.8609 29.5862 -3
      vertex 49.8609 29.5862 0
    endloop
  endfacet
  facet normal 0.130528 0.991445 -0
    outer loop
      vertex 48.895 28.845 -3
      vertex 48.6362 28.8791 0
      vertex 48.895 28.845 0
    endloop
  endfacet
  facet normal 0.130528 0.991445 0
    outer loop
      vertex 48.6362 28.8791 0
      vertex 48.895 28.845 -3
      vertex 48.6362 28.8791 -3
    endloop
  endfacet
  facet normal 0.608758 -0.793356 0
    outer loop
      vertex 74 -5.19615 -3
      vertex 75.2426 -4.24265 13
      vertex 74 -5.19615 13
    endloop
  endfacet
  facet normal 0.608758 -0.793356 0
    outer loop
      vertex 75.2426 -4.24265 13
      vertex 74 -5.19615 -3
      vertex 75.2426 -4.24265 -3
    endloop
  endfacet
  facet normal 0.793356 -0.608758 0
    outer loop
      vertex 75.2426 -4.24265 13
      vertex 76.1962 -3 -3
      vertex 76.1962 -3 13
    endloop
  endfacet
  facet normal 0.793356 -0.608758 0
    outer loop
      vertex 76.1962 -3 -3
      vertex 75.2426 -4.24265 13
      vertex 75.2426 -4.24265 -3
    endloop
  endfacet
  facet normal 0.38268 -0.923881 0
    outer loop
      vertex 72.5529 -5.79555 -3
      vertex 74 -5.19615 13
      vertex 72.5529 -5.79555 13
    endloop
  endfacet
  facet normal 0.38268 -0.923881 0
    outer loop
      vertex 74 -5.19615 13
      vertex 72.5529 -5.79555 -3
      vertex 74 -5.19615 -3
    endloop
  endfacet
  facet normal 0 1 0
    outer loop
      vertex 71 46 13
      vertex 68.5 46 6
      vertex 68.5 46 13
    endloop
  endfacet
  facet normal 0 1 -0
    outer loop
      vertex 71 46 -3
      vertex 68.5 46 6
      vertex 71 46 13
    endloop
  endfacet
  facet normal 0 1 0
    outer loop
      vertex 64.4235 46 0.687408
      vertex 71 46 -3
      vertex 63 46 0.5
    endloop
  endfacet
  facet normal 0 1 0
    outer loop
      vertex 65.75 46 1.23686
      vertex 71 46 -3
      vertex 64.4235 46 0.687408
    endloop
  endfacet
  facet normal 0 1 0
    outer loop
      vertex 66.8891 46 2.11091
      vertex 71 46 -3
      vertex 65.75 46 1.23686
    endloop
  endfacet
  facet normal 0 1 0
    outer loop
      vertex 67.7631 46 3.25
      vertex 71 46 -3
      vertex 66.8891 46 2.11091
    endloop
  endfacet
  facet normal 0 1 0
    outer loop
      vertex 68.3126 46 4.5765
      vertex 71 46 -3
      vertex 67.7631 46 3.25
    endloop
  endfacet
  facet normal 0 1 0
    outer loop
      vertex 68.5 46 6
      vertex 71 46 -3
      vertex 68.3126 46 4.5765
    endloop
  endfacet
  facet normal 0 1 -0
    outer loop
      vertex 57.5 46 6
      vertex 0 46 13
      vertex 57.5 46 13
    endloop
  endfacet
  facet normal 0 1 0
    outer loop
      vertex 0 46 -3
      vertex 57.5 46 6
      vertex 57.6874 46 4.5765
    endloop
  endfacet
  facet normal 0 1 0
    outer loop
      vertex 0 46 -3
      vertex 57.6874 46 4.5765
      vertex 58.2369 46 3.25
    endloop
  endfacet
  facet normal 0 1 0
    outer loop
      vertex 0 46 -3
      vertex 58.2369 46 3.25
      vertex 59.1109 46 2.11091
    endloop
  endfacet
  facet normal 0 1 0
    outer loop
      vertex 0 46 -3
      vertex 59.1109 46 2.11091
      vertex 60.25 46 1.23686
    endloop
  endfacet
  facet normal 0 1 0
    outer loop
      vertex 0 46 -3
      vertex 60.25 46 1.23686
      vertex 61.5765 46 0.687408
    endloop
  endfacet
  facet normal 0 1 0
    outer loop
      vertex 71 46 -3
      vertex 61.5765 46 0.687408
      vertex 63 46 0.5
    endloop
  endfacet
  facet normal 0 1 0
    outer loop
      vertex 0 46 -3
      vertex 61.5765 46 0.687408
      vertex 71 46 -3
    endloop
  endfacet
  facet normal 0 1 0
    outer loop
      vertex 57.5 46 6
      vertex 0 46 -3
      vertex 0 46 13
    endloop
  endfacet
  facet normal 1 -0 0
    outer loop
      vertex 77 0 13
      vertex 77 40 -3
      vertex 77 40 13
    endloop
  endfacet
  facet normal 1 0 0
    outer loop
      vertex 77 40 -3
      vertex 77 0 13
      vertex 77 0 -3
    endloop
  endfacet
  facet normal -0.38268 -0.923881 0
    outer loop
      vertex -3 -5.19615 -3
      vertex -1.55292 -5.79555 13
      vertex -3 -5.19615 13
    endloop
  endfacet
  facet normal -0.38268 -0.923881 -0
    outer loop
      vertex -1.55292 -5.79555 13
      vertex -3 -5.19615 -3
      vertex -1.55292 -5.79555 -3
    endloop
  endfacet
  facet normal -0.991444 -0.130531 0
    outer loop
      vertex -5.79555 -1.55292 -3
      vertex -6 0 13
      vertex -6 0 -3
    endloop
  endfacet
  facet normal -0.991444 -0.130531 0
    outer loop
      vertex -6 0 13
      vertex -5.79555 -1.55292 -3
      vertex -5.79555 -1.55292 13
    endloop
  endfacet
  facet normal 0 0 1
    outer loop
      vertex 29.4 -1 0
      vertex 2.87092 2.16382 0
      vertex 2.905 1.905 0
    endloop
  endfacet
  facet normal 0 0 1
    outer loop
      vertex 29.4 -1 0
      vertex 2.77102 2.405 0
      vertex 2.87092 2.16382 0
    endloop
  endfacet
  facet normal 0 0 1
    outer loop
      vertex 29.4 -1 0
      vertex 2.61211 2.61211 0
      vertex 2.77102 2.405 0
    endloop
  endfacet
  facet normal -0 0 1
    outer loop
      vertex -1 36 0
      vertex 2.61211 2.61211 0
      vertex 4 41 0
    endloop
  endfacet
  facet normal 0 0 1
    outer loop
      vertex 2.61211 2.61211 0
      vertex -1 36 0
      vertex 2.405 2.77102 0
    endloop
  endfacet
  facet normal 0 0 1
    outer loop
      vertex 2.405 2.77102 0
      vertex -1 36 0
      vertex 2.16382 2.87092 0
    endloop
  endfacet
  facet normal 0 0 1
    outer loop
      vertex 2.16382 2.87092 0
      vertex -1 36 0
      vertex 1.905 2.905 0
    endloop
  endfacet
  facet normal 0 0 1
    outer loop
      vertex 1.905 2.905 0
      vertex -1 36 0
      vertex 1.64618 2.87092 0
    endloop
  endfacet
  facet normal 0 0 1
    outer loop
      vertex 1.64618 2.87092 0
      vertex -1 36 0
      vertex 1.405 2.77102 0
    endloop
  endfacet
  facet normal 0 0 1
    outer loop
      vertex 1.405 2.77102 0
      vertex -1 36 0
      vertex 1.19789 2.61211 0
    endloop
  endfacet
  facet normal 0 0 1
    outer loop
      vertex 1.19789 2.61211 0
      vertex -1 36 0
      vertex 1.03897 2.405 0
    endloop
  endfacet
  facet normal 0 0 1
    outer loop
      vertex -1 0 0
      vertex 1.03897 2.405 0
      vertex -1 36 0
    endloop
  endfacet
  facet normal 0 0 1
    outer loop
      vertex 1.03897 2.405 0
      vertex -1 0 0
      vertex 0.939074 2.16382 0
    endloop
  endfacet
  facet normal 0 0 1
    outer loop
      vertex 0.939074 2.16382 0
      vertex -1 0 0
      vertex 0.905 1.905 0
    endloop
  endfacet
  facet normal 0 0 1
    outer loop
      vertex 0 -1 0
      vertex -1 0 0
      vertex -0.25882 -0.965927 0
    endloop
  endfacet
  facet normal 0 0 1
    outer loop
      vertex -0.25882 -0.965927 0
      vertex -1 0 0
      vertex -0.5 -0.866028 0
    endloop
  endfacet
  facet normal 0 0 1
    outer loop
      vertex -0.5 -0.866028 0
      vertex -1 0 0
      vertex -0.707108 -0.707108 0
    endloop
  endfacet
  facet normal 0 0 1
    outer loop
      vertex -0.707108 -0.707108 0
      vertex -1 0 0
      vertex -0.866028 -0.5 0
    endloop
  endfacet
  facet normal 0 0 1
    outer loop
      vertex 0.905 1.905 0
      vertex -1 0 0
      vertex 0 -1 0
    endloop
  endfacet
  facet normal 0 0 1
    outer loop
      vertex -0.866028 -0.5 0
      vertex -1 0 0
      vertex -0.965927 -0.25882 0
    endloop
  endfacet
  facet normal 0 0 1
    outer loop
      vertex 71 41 0
      vertex 72 40 0
      vertex 71.9659 40.2588 0
    endloop
  endfacet
  facet normal 0 0 1
    outer loop
      vertex 71 41 0
      vertex 71.9659 40.2588 0
      vertex 71.866 40.5 0
    endloop
  endfacet
  facet normal 0 0 1
    outer loop
      vertex 71 41 0
      vertex 71.866 40.5 0
      vertex 71.7071 40.7071 0
    endloop
  endfacet
  facet normal 0 0 1
    outer loop
      vertex 71 41 0
      vertex 71.7071 40.7071 0
      vertex 71.5 40.866 0
    endloop
  endfacet
  facet normal 0 0 1
    outer loop
      vertex 71 41 0
      vertex 71.5 40.866 0
      vertex 71.2588 40.9659 0
    endloop
  endfacet
  facet normal 0 0 1
    outer loop
      vertex 72 40 0
      vertex 71 41 0
      vertex 49.895 29.845 0
    endloop
  endfacet
  facet normal 0 0 1
    outer loop
      vertex 49.761 29.345 0
      vertex 72 40 0
      vertex 49.8609 29.5862 0
    endloop
  endfacet
  facet normal -0 0 1
    outer loop
      vertex 49.6021 29.1379 0
      vertex 72 4 0
      vertex 49.761 29.345 0
    endloop
  endfacet
  facet normal 0 0 1
    outer loop
      vertex 72 40 0
      vertex 49.761 29.345 0
      vertex 72 4 0
    endloop
  endfacet
  facet normal 0 0 1
    outer loop
      vertex 72 40 0
      vertex 49.895 29.845 0
      vertex 49.8609 29.5862 0
    endloop
  endfacet
  facet normal 0 0 1
    outer loop
      vertex 71 41 0
      vertex 49.8609 30.1038 0
      vertex 49.895 29.845 0
    endloop
  endfacet
  facet normal 0 0 1
    outer loop
      vertex 71 41 0
      vertex 49.761 30.345 0
      vertex 49.8609 30.1038 0
    endloop
  endfacet
  facet normal 0 0 1
    outer loop
      vertex 71 41 0
      vertex 49.6021 30.5521 0
      vertex 49.761 30.345 0
    endloop
  endfacet
  facet normal 0 0 1
    outer loop
      vertex 71 41 0
      vertex 49.395 30.711 0
      vertex 49.6021 30.5521 0
    endloop
  endfacet
  facet normal 0 0 1
    outer loop
      vertex 71 41 0
      vertex 49.1538 30.8109 0
      vertex 49.395 30.711 0
    endloop
  endfacet
  facet normal 0 0 1
    outer loop
      vertex 71 41 0
      vertex 48.895 30.845 0
      vertex 49.1538 30.8109 0
    endloop
  endfacet
  facet normal 0 0 1
    outer loop
      vertex 71 41 0
      vertex 48.6362 30.8109 0
      vertex 48.895 30.845 0
    endloop
  endfacet
  facet normal -0 0 1
    outer loop
      vertex 4 41 0
      vertex 48.6362 30.8109 0
      vertex 71 41 0
    endloop
  endfacet
  facet normal 0 0 1
    outer loop
      vertex 4 41 0
      vertex 47.895 29.845 0
      vertex 47.9291 30.1038 0
    endloop
  endfacet
  facet normal 0 0 1
    outer loop
      vertex 4 41 0
      vertex 47.9291 30.1038 0
      vertex 48.029 30.345 0
    endloop
  endfacet
  facet normal 0 0 1
    outer loop
      vertex 48.6362 30.8109 0
      vertex 4 41 0
      vertex 48.395 30.711 0
    endloop
  endfacet
  facet normal 0 0 1
    outer loop
      vertex 4 41 0
      vertex 48.1879 30.5521 0
      vertex 48.395 30.711 0
    endloop
  endfacet
  facet normal 0 0 1
    outer loop
      vertex 4 41 0
      vertex 48.029 30.345 0
      vertex 48.1879 30.5521 0
    endloop
  endfacet
  facet normal 0 0 1
    outer loop
      vertex 47.895 29.845 0
      vertex 4 41 0
      vertex 29.4 -1 0
    endloop
  endfacet
  facet normal -0 0 1
    outer loop
      vertex 2.61211 2.61211 0
      vertex 29.4 -1 0
      vertex 4 41 0
    endloop
  endfacet
  facet normal -0 0 1
    outer loop
      vertex 2.87092 1.64618 0
      vertex 29.4 -1 0
      vertex 2.905 1.905 0
    endloop
  endfacet
  facet normal -0 0 1
    outer loop
      vertex 2.77102 1.405 0
      vertex 29.4 -1 0
      vertex 2.87092 1.64618 0
    endloop
  endfacet
  facet normal -0 0 1
    outer loop
      vertex 2.61211 1.19789 0
      vertex 29.4 -1 0
      vertex 2.77102 1.405 0
    endloop
  endfacet
  facet normal -0 0 1
    outer loop
      vertex 2.405 1.03897 0
      vertex 29.4 -1 0
      vertex 2.61211 1.19789 0
    endloop
  endfacet
  facet normal 0 0 1
    outer loop
      vertex 0 -1 0
      vertex 2.405 1.03897 0
      vertex 2.16382 0.939074 0
    endloop
  endfacet
  facet normal 0 0 1
    outer loop
      vertex 0 -1 0
      vertex 2.16382 0.939074 0
      vertex 1.905 0.905 0
    endloop
  endfacet
  facet normal 0 0 1
    outer loop
      vertex 2.405 1.03897 0
      vertex 0 -1 0
      vertex 29.4 -1 0
    endloop
  endfacet
  facet normal 0 0 1
    outer loop
      vertex 1.64618 0.939074 0
      vertex 0 -1 0
      vertex 1.905 0.905 0
    endloop
  endfacet
  facet normal 0 0 1
    outer loop
      vertex 1.405 1.03897 0
      vertex 0 -1 0
      vertex 1.64618 0.939074 0
    endloop
  endfacet
  facet normal 0 0 1
    outer loop
      vertex 1.19789 1.19789 0
      vertex 0 -1 0
      vertex 1.405 1.03897 0
    endloop
  endfacet
  facet normal 0 0 1
    outer loop
      vertex 1.03897 1.405 0
      vertex 0 -1 0
      vertex 1.19789 1.19789 0
    endloop
  endfacet
  facet normal 0 0 1
    outer loop
      vertex 0.939074 1.64618 0
      vertex 0 -1 0
      vertex 1.03897 1.405 0
    endloop
  endfacet
  facet normal 0 0 1
    outer loop
      vertex 0 -1 0
      vertex 0.939074 1.64618 0
      vertex 0.905 1.905 0
    endloop
  endfacet
  facet normal -0 0 1
    outer loop
      vertex 49.395 28.979 0
      vertex 72 4 0
      vertex 49.6021 29.1379 0
    endloop
  endfacet
  facet normal 0 -0 1
    outer loop
      vertex 50.4 -1 0
      vertex 72 4 0
      vertex 49.395 28.979 0
    endloop
  endfacet
  facet normal 0 0 1
    outer loop
      vertex 72 4 0
      vertex 50.4 -1 0
      vertex 67 -1 0
    endloop
  endfacet
  facet normal -0 0 1
    outer loop
      vertex 49.1538 28.8791 0
      vertex 50.4 -1 0
      vertex 49.395 28.979 0
    endloop
  endfacet
  facet normal -0 0 1
    outer loop
      vertex 48.895 28.845 0
      vertex 50.4 -1 0
      vertex 49.1538 28.8791 0
    endloop
  endfacet
  facet normal 0 0 1
    outer loop
      vertex 48.6362 28.8791 0
      vertex 50.4 -1 0
      vertex 48.895 28.845 0
    endloop
  endfacet
  facet normal 0 0 1
    outer loop
      vertex 48.395 28.979 0
      vertex 50.4 -1 0
      vertex 48.6362 28.8791 0
    endloop
  endfacet
  facet normal 0 0 1
    outer loop
      vertex 50.4 -1 0
      vertex 48.395 28.979 0
      vertex 29.4 -1 0
    endloop
  endfacet
  facet normal 0 0 1
    outer loop
      vertex 29.4 -1 0
      vertex 48.395 28.979 0
      vertex 48.1879 29.1379 0
    endloop
  endfacet
  facet normal 0 0 1
    outer loop
      vertex 29.4 -1 0
      vertex 48.1879 29.1379 0
      vertex 48.029 29.345 0
    endloop
  endfacet
  facet normal 0 0 1
    outer loop
      vertex 29.4 -1 0
      vertex 48.029 29.345 0
      vertex 47.9291 29.5862 0
    endloop
  endfacet
  facet normal 0 0 1
    outer loop
      vertex 29.4 -1 0
      vertex 47.9291 29.5862 0
      vertex 47.895 29.845 0
    endloop
  endfacet
  facet normal 0 0 1
    outer loop
      vertex 50.4 -1 0
      vertex 29.4 -1 0
      vertex 50.4 -6 0
    endloop
  endfacet
  facet normal 0 0 1
    outer loop
      vertex 50.4 -6 0
      vertex 29.4 -1 0
      vertex 29.4 -6 0
    endloop
  endfacet
  facet normal 0 0 1
    outer loop
      vertex -0.0340738 41.2588 0
      vertex -0.0340738 40.7412 0
      vertex 0 41 0
    endloop
  endfacet
  facet normal 0 0 1
    outer loop
      vertex -0.133974 41.5 0
      vertex -0.0340738 40.7412 0
      vertex -0.0340738 41.2588 0
    endloop
  endfacet
  facet normal 0 0 1
    outer loop
      vertex -0.133974 41.5 0
      vertex -0.133974 40.5 0
      vertex -0.0340738 40.7412 0
    endloop
  endfacet
  facet normal 0 0 1
    outer loop
      vertex -0.292892 41.7071 0
      vertex -0.133974 40.5 0
      vertex -0.133974 41.5 0
    endloop
  endfacet
  facet normal 0 0 1
    outer loop
      vertex -0.292892 41.7071 0
      vertex -0.292892 40.2929 0
      vertex -0.133974 40.5 0
    endloop
  endfacet
  facet normal 0 0 1
    outer loop
      vertex -0.499999 41.866 0
      vertex -0.292892 40.2929 0
      vertex -0.292892 41.7071 0
    endloop
  endfacet
  facet normal 0 0 1
    outer loop
      vertex -0.499999 41.866 0
      vertex -0.5 40.134 0
      vertex -0.292892 40.2929 0
    endloop
  endfacet
  facet normal 0 0 1
    outer loop
      vertex -0.74118 41.9659 0
      vertex -0.5 40.134 0
      vertex -0.499999 41.866 0
    endloop
  endfacet
  facet normal 0 0 1
    outer loop
      vertex -0.74118 41.9659 0
      vertex -0.74118 40.0341 0
      vertex -0.5 40.134 0
    endloop
  endfacet
  facet normal 0 0 1
    outer loop
      vertex -0.999999 42 0
      vertex -0.74118 40.0341 0
      vertex -0.74118 41.9659 0
    endloop
  endfacet
  facet normal 0 0 1
    outer loop
      vertex -0.999999 42 0
      vertex -1 40 0
      vertex -0.74118 40.0341 0
    endloop
  endfacet
  facet normal -0 0 1
    outer loop
      vertex -1.25882 41.9659 0
      vertex -1 40 0
      vertex -0.999999 42 0
    endloop
  endfacet
  facet normal 0 0 1
    outer loop
      vertex -1.25882 41.9659 0
      vertex -1.25882 40.0341 0
      vertex -1 40 0
    endloop
  endfacet
  facet normal -0 0 1
    outer loop
      vertex -1.5 41.866 0
      vertex -1.25882 40.0341 0
      vertex -1.25882 41.9659 0
    endloop
  endfacet
  facet normal 0 0 1
    outer loop
      vertex -1.5 41.866 0
      vertex -1.5 40.134 0
      vertex -1.25882 40.0341 0
    endloop
  endfacet
  facet normal -0 0 1
    outer loop
      vertex -1.70711 41.7071 0
      vertex -1.5 40.134 0
      vertex -1.5 41.866 0
    endloop
  endfacet
  facet normal 0 0 1
    outer loop
      vertex -1.70711 41.7071 0
      vertex -1.70711 40.2929 0
      vertex -1.5 40.134 0
    endloop
  endfacet
  facet normal -0 0 1
    outer loop
      vertex -1.86602 41.5 0
      vertex -1.70711 40.2929 0
      vertex -1.70711 41.7071 0
    endloop
  endfacet
  facet normal 0 0 1
    outer loop
      vertex -1.86602 41.5 0
      vertex -1.86602 40.5 0
      vertex -1.70711 40.2929 0
    endloop
  endfacet
  facet normal -0 0 1
    outer loop
      vertex -1.96593 41.2588 0
      vertex -1.86602 40.5 0
      vertex -1.86602 41.5 0
    endloop
  endfacet
  facet normal 0 0 1
    outer loop
      vertex -1.96593 41.2588 0
      vertex -1.96593 40.7412 0
      vertex -1.86602 40.5 0
    endloop
  endfacet
  facet normal 0 -0 1
    outer loop
      vertex -1.96593 40.7412 0
      vertex -1.96593 41.2588 0
      vertex -2 41 0
    endloop
  endfacet
  facet normal 0 0 1
    outer loop
      vertex 72.9659 -0.74118 0
      vertex 72.9659 -1.25882 0
      vertex 73 -1 0
    endloop
  endfacet
  facet normal 0 0 1
    outer loop
      vertex 72.866 -0.5 0
      vertex 72.9659 -1.25882 0
      vertex 72.9659 -0.74118 0
    endloop
  endfacet
  facet normal 0 0 1
    outer loop
      vertex 72.866 -0.5 0
      vertex 72.866 -1.5 0
      vertex 72.9659 -1.25882 0
    endloop
  endfacet
  facet normal 0 0 1
    outer loop
      vertex 72.7071 -0.292892 0
      vertex 72.866 -1.5 0
      vertex 72.866 -0.5 0
    endloop
  endfacet
  facet normal 0 0 1
    outer loop
      vertex 72.7071 -0.292892 0
      vertex 72.7071 -1.70711 0
      vertex 72.866 -1.5 0
    endloop
  endfacet
  facet normal 0 0 1
    outer loop
      vertex 72.5 -0.133974 0
      vertex 72.7071 -1.70711 0
      vertex 72.7071 -0.292892 0
    endloop
  endfacet
  facet normal 0 0 1
    outer loop
      vertex 72.5 -0.133974 0
      vertex 72.5 -1.86602 0
      vertex 72.7071 -1.70711 0
    endloop
  endfacet
  facet normal 0 0 1
    outer loop
      vertex 72.2588 -0.0340738 0
      vertex 72.5 -1.86602 0
      vertex 72.5 -0.133974 0
    endloop
  endfacet
  facet normal 0 0 1
    outer loop
      vertex 72.2588 -0.0340738 0
      vertex 72.2588 -1.96593 0
      vertex 72.5 -1.86602 0
    endloop
  endfacet
  facet normal 0 0 1
    outer loop
      vertex 72 0 0
      vertex 72.2588 -1.96593 0
      vertex 72.2588 -0.0340738 0
    endloop
  endfacet
  facet normal 0 0 1
    outer loop
      vertex 72 0 0
      vertex 72 -2 0
      vertex 72.2588 -1.96593 0
    endloop
  endfacet
  facet normal -0 0 1
    outer loop
      vertex 71.7412 -0.0340738 0
      vertex 72 -2 0
      vertex 72 0 0
    endloop
  endfacet
  facet normal 0 0 1
    outer loop
      vertex 71.7412 -0.0340738 0
      vertex 71.7412 -1.96593 0
      vertex 72 -2 0
    endloop
  endfacet
  facet normal -0 0 1
    outer loop
      vertex 71.5 -0.133974 0
      vertex 71.7412 -1.96593 0
      vertex 71.7412 -0.0340738 0
    endloop
  endfacet
  facet normal 0 0 1
    outer loop
      vertex 71.5 -0.133974 0
      vertex 71.5 -1.86602 0
      vertex 71.7412 -1.96593 0
    endloop
  endfacet
  facet normal -0 0 1
    outer loop
      vertex 71.2929 -0.292892 0
      vertex 71.5 -1.86602 0
      vertex 71.5 -0.133974 0
    endloop
  endfacet
  facet normal 0 0 1
    outer loop
      vertex 71.2929 -0.292892 0
      vertex 71.2929 -1.70711 0
      vertex 71.5 -1.86602 0
    endloop
  endfacet
  facet normal -0 0 1
    outer loop
      vertex 71.134 -0.5 0
      vertex 71.2929 -1.70711 0
      vertex 71.2929 -0.292892 0
    endloop
  endfacet
  facet normal 0 0 1
    outer loop
      vertex 71.134 -0.5 0
      vertex 71.134 -1.5 0
      vertex 71.2929 -1.70711 0
    endloop
  endfacet
  facet normal -0 0 1
    outer loop
      vertex 71.0341 -0.74118 0
      vertex 71.134 -1.5 0
      vertex 71.134 -0.5 0
    endloop
  endfacet
  facet normal 0 0 1
    outer loop
      vertex 71.0341 -0.74118 0
      vertex 71.0341 -1.25882 0
      vertex 71.134 -1.5 0
    endloop
  endfacet
  facet normal 0 -0 1
    outer loop
      vertex 71.0341 -1.25882 0
      vertex 71.0341 -0.74118 0
      vertex 71 -0.999999 0
    endloop
  endfacet
  facet normal -0.793356 -0.608758 0
    outer loop
      vertex -4.24265 -4.24265 -3
      vertex -5.19615 -3 13
      vertex -5.19615 -3 -3
    endloop
  endfacet
  facet normal -0.793356 -0.608758 0
    outer loop
      vertex -5.19615 -3 13
      vertex -4.24265 -4.24265 -3
      vertex -4.24265 -4.24265 13
    endloop
  endfacet
  facet normal -0.608758 0.793356 0
    outer loop
      vertex -3 45.1962 -3
      vertex -4.24265 44.2426 13
      vertex -3 45.1962 13
    endloop
  endfacet
  facet normal -0.608758 0.793356 0
    outer loop
      vertex -4.24265 44.2426 13
      vertex -3 45.1962 -3
      vertex -4.24265 44.2426 -3
    endloop
  endfacet
  facet normal 0.608758 0.793356 -0
    outer loop
      vertex 75.2426 44.2426 -3
      vertex 74 45.1962 13
      vertex 75.2426 44.2426 13
    endloop
  endfacet
  facet normal 0.608758 0.793356 0
    outer loop
      vertex 74 45.1962 13
      vertex 75.2426 44.2426 -3
      vertex 74 45.1962 -3
    endloop
  endfacet
  facet normal 0.130531 -0.991444 0
    outer loop
      vertex 71 -6 -3
      vertex 72.5529 -5.79555 13
      vertex 71 -6 13
    endloop
  endfacet
  facet normal 0.130531 -0.991444 0
    outer loop
      vertex 72.5529 -5.79555 13
      vertex 71 -6 -3
      vertex 72.5529 -5.79555 -3
    endloop
  endfacet
  facet normal 0 -1 0
    outer loop
      vertex 0 -6 13
      vertex 29.4 -6 0
      vertex 29.4 -6 13
    endloop
  endfacet
  facet normal 0 -1 0
    outer loop
      vertex 71 -6 -3
      vertex 29.4 -6 0
      vertex 0 -6 -3
    endloop
  endfacet
  facet normal 0 -1 0
    outer loop
      vertex 0 -6 -3
      vertex 29.4 -6 0
      vertex 0 -6 13
    endloop
  endfacet
  facet normal 0 -1 0
    outer loop
      vertex 50.4 -6 0
      vertex 71 -6 13
      vertex 50.4 -6 13
    endloop
  endfacet
  facet normal 0 -1 0
    outer loop
      vertex 50.4 -6 0
      vertex 71 -6 -3
      vertex 71 -6 13
    endloop
  endfacet
  facet normal 0 -1 0
    outer loop
      vertex 29.4 -6 0
      vertex 71 -6 -3
      vertex 50.4 -6 0
    endloop
  endfacet
  facet normal -1 0 0
    outer loop
      vertex -6 0 -3
      vertex -6 40 13
      vertex -6 40 -3
    endloop
  endfacet
  facet normal -1 -0 0
    outer loop
      vertex -6 40 13
      vertex -6 0 -3
      vertex -6 0 13
    endloop
  endfacet
  facet normal -0.608758 -0.793356 0
    outer loop
      vertex -4.24265 -4.24265 -3
      vertex -3 -5.19615 13
      vertex -4.24265 -4.24265 13
    endloop
  endfacet
  facet normal -0.608758 -0.793356 -0
    outer loop
      vertex -3 -5.19615 13
      vertex -4.24265 -4.24265 -3
      vertex -3 -5.19615 -3
    endloop
  endfacet
  facet normal -0.130531 0.991444 0
    outer loop
      vertex 0 46 -3
      vertex -1.55292 45.7955 13
      vertex 0 46 13
    endloop
  endfacet
  facet normal -0.130531 0.991444 0
    outer loop
      vertex -1.55292 45.7955 13
      vertex 0 46 -3
      vertex -1.55292 45.7955 -3
    endloop
  endfacet
  facet normal -0.38268 0.923881 0
    outer loop
      vertex -1.55292 45.7955 -3
      vertex -3 45.1962 13
      vertex -1.55292 45.7955 13
    endloop
  endfacet
  facet normal -0.38268 0.923881 0
    outer loop
      vertex -3 45.1962 13
      vertex -1.55292 45.7955 -3
      vertex -3 45.1962 -3
    endloop
  endfacet
  facet normal 0.923881 -0.38268 0
    outer loop
      vertex 76.1962 -3 13
      vertex 76.7955 -1.55292 -3
      vertex 76.7955 -1.55292 13
    endloop
  endfacet
  facet normal 0.923881 -0.38268 0
    outer loop
      vertex 76.7955 -1.55292 -3
      vertex 76.1962 -3 13
      vertex 76.1962 -3 -3
    endloop
  endfacet
  facet normal -0.130531 -0.991444 0
    outer loop
      vertex -1.55292 -5.79555 -3
      vertex 0 -6 13
      vertex -1.55292 -5.79555 13
    endloop
  endfacet
  facet normal -0.130531 -0.991444 -0
    outer loop
      vertex 0 -6 13
      vertex -1.55292 -5.79555 -3
      vertex 0 -6 -3
    endloop
  endfacet
  facet normal -0.991444 0.130531 0
    outer loop
      vertex -6 40 -3
      vertex -5.79555 41.5529 13
      vertex -5.79555 41.5529 -3
    endloop
  endfacet
  facet normal -0.991444 0.130531 0
    outer loop
      vertex -5.79555 41.5529 13
      vertex -6 40 -3
      vertex -6 40 13
    endloop
  endfacet
  facet normal -0.793356 0.608758 0
    outer loop
      vertex -5.19615 43 -3
      vertex -4.24265 44.2426 13
      vertex -4.24265 44.2426 -3
    endloop
  endfacet
  facet normal -0.793356 0.608758 0
    outer loop
      vertex -4.24265 44.2426 13
      vertex -5.19615 43 -3
      vertex -5.19615 43 13
    endloop
  endfacet
  facet normal -0.923881 -0.38268 0
    outer loop
      vertex -5.19615 -3 -3
      vertex -5.79555 -1.55292 13
      vertex -5.79555 -1.55292 -3
    endloop
  endfacet
  facet normal -0.923881 -0.38268 0
    outer loop
      vertex -5.79555 -1.55292 13
      vertex -5.19615 -3 -3
      vertex -5.19615 -3 13
    endloop
  endfacet
  facet normal 0.38268 0.923881 -0
    outer loop
      vertex 74 45.1962 -3
      vertex 72.5529 45.7955 13
      vertex 74 45.1962 13
    endloop
  endfacet
  facet normal 0.38268 0.923881 0
    outer loop
      vertex 72.5529 45.7955 13
      vertex 74 45.1962 -3
      vertex 72.5529 45.7955 -3
    endloop
  endfacet
  facet normal 0.991444 0.130531 0
    outer loop
      vertex 77 40 13
      vertex 76.7955 41.5529 -3
      vertex 76.7955 41.5529 13
    endloop
  endfacet
  facet normal 0.991444 0.130531 0
    outer loop
      vertex 76.7955 41.5529 -3
      vertex 77 40 13
      vertex 77 40 -3
    endloop
  endfacet
  facet normal -0.923881 0.38268 0
    outer loop
      vertex -5.79555 41.5529 -3
      vertex -5.19615 43 13
      vertex -5.19615 43 -3
    endloop
  endfacet
  facet normal -0.923881 0.38268 0
    outer loop
      vertex -5.19615 43 13
      vertex -5.79555 41.5529 -3
      vertex -5.79555 41.5529 13
    endloop
  endfacet
  facet normal 0.130531 0.991444 -0
    outer loop
      vertex 72.5529 45.7955 -3
      vertex 71 46 13
      vertex 72.5529 45.7955 13
    endloop
  endfacet
  facet normal 0.130531 0.991444 0
    outer loop
      vertex 71 46 13
      vertex 72.5529 45.7955 -3
      vertex 71 46 -3
    endloop
  endfacet
  facet normal 0.793356 0.608758 0
    outer loop
      vertex 76.1962 43 13
      vertex 75.2426 44.2426 -3
      vertex 75.2426 44.2426 13
    endloop
  endfacet
  facet normal 0.793356 0.608758 0
    outer loop
      vertex 75.2426 44.2426 -3
      vertex 76.1962 43 13
      vertex 76.1962 43 -3
    endloop
  endfacet
  facet normal 0.923881 0.38268 0
    outer loop
      vertex 76.7955 41.5529 13
      vertex 76.1962 43 -3
      vertex 76.1962 43 13
    endloop
  endfacet
  facet normal 0.923881 0.38268 0
    outer loop
      vertex 76.1962 43 -3
      vertex 76.7955 41.5529 13
      vertex 76.7955 41.5529 -3
    endloop
  endfacet
  facet normal 0.991444 -0.130531 0
    outer loop
      vertex 76.7955 -1.55292 13
      vertex 77 0 -3
      vertex 77 0 13
    endloop
  endfacet
  facet normal 0.991444 -0.130531 0
    outer loop
      vertex 77 0 -3
      vertex 76.7955 -1.55292 13
      vertex 76.7955 -1.55292 -3
    endloop
  endfacet
  facet normal 0 0 1
    outer loop
      vertex 72 40 13
      vertex 77 40 13
      vertex 76.7955 41.5529 13
    endloop
  endfacet
  facet normal 0 0 1
    outer loop
      vertex 77 40 13
      vertex 72 4 13
      vertex 77 0 13
    endloop
  endfacet
  facet normal 0 0 1
    outer loop
      vertex 71.9659 40.2588 13
      vertex 76.7955 41.5529 13
      vertex 76.1962 43 13
    endloop
  endfacet
  facet normal 0 -0 1
    outer loop
      vertex 72.7071 -0.292892 13
      vertex 77 0 13
      vertex 72 4 13
    endloop
  endfacet
  facet normal 0 0 1
    outer loop
      vertex 71.866 40.5 13
      vertex 76.1962 43 13
      vertex 75.2426 44.2426 13
    endloop
  endfacet
  facet normal 0 -0 1
    outer loop
      vertex 72.866 -0.5 13
      vertex 77 0 13
      vertex 72.7071 -0.292892 13
    endloop
  endfacet
  facet normal 0 0 1
    outer loop
      vertex 71.7071 40.7071 13
      vertex 75.2426 44.2426 13
      vertex 74 45.1962 13
    endloop
  endfacet
  facet normal 0 0 1
    outer loop
      vertex 77 0 13
      vertex 72.9659 -0.74118 13
      vertex 76.7955 -1.55292 13
    endloop
  endfacet
  facet normal 0 0 1
    outer loop
      vertex 76.7955 -1.55292 13
      vertex 72.9659 -1.25882 13
      vertex 76.1962 -3 13
    endloop
  endfacet
  facet normal -0 0 1
    outer loop
      vertex 72.866 -1.5 13
      vertex 76.1962 -3 13
      vertex 72.9659 -1.25882 13
    endloop
  endfacet
  facet normal -0 0 1
    outer loop
      vertex 72.9659 -1.25882 13
      vertex 76.7955 -1.55292 13
      vertex 73 -1 13
    endloop
  endfacet
  facet normal -0 -0 1
    outer loop
      vertex 73 -1 13
      vertex 76.7955 -1.55292 13
      vertex 72.9659 -0.74118 13
    endloop
  endfacet
  facet normal 0 0 1
    outer loop
      vertex 71.5 40.866 13
      vertex 74 45.1962 13
      vertex 72.5529 45.7955 13
    endloop
  endfacet
  facet normal 0 0 1
    outer loop
      vertex 77 40 13
      vertex 72 40 13
      vertex 72 4 13
    endloop
  endfacet
  facet normal 0 -0 1
    outer loop
      vertex 72.9659 -0.74118 13
      vertex 77 0 13
      vertex 72.866 -0.5 13
    endloop
  endfacet
  facet normal 0 0 1
    outer loop
      vertex 72.7071 -0.292892 13
      vertex 72 4 13
      vertex 72.5 -0.133974 13
    endloop
  endfacet
  facet normal 0 0 1
    outer loop
      vertex 76.7955 41.5529 13
      vertex 71.9659 40.2588 13
      vertex 72 40 13
    endloop
  endfacet
  facet normal 0 0 1
    outer loop
      vertex 76.1962 43 13
      vertex 71.866 40.5 13
      vertex 71.9659 40.2588 13
    endloop
  endfacet
  facet normal 0 0 1
    outer loop
      vertex 75.2426 44.2426 13
      vertex 71.7071 40.7071 13
      vertex 71.866 40.5 13
    endloop
  endfacet
  facet normal 0 0 1
    outer loop
      vertex 74 45.1962 13
      vertex 71.5 40.866 13
      vertex 71.7071 40.7071 13
    endloop
  endfacet
  facet normal 0 0 1
    outer loop
      vertex 72.5529 45.7955 13
      vertex 71.2588 40.9659 13
      vertex 71.5 40.866 13
    endloop
  endfacet
  facet normal 0 0 1
    outer loop
      vertex 71 46 13
      vertex 71.2588 40.9659 13
      vertex 72.5529 45.7955 13
    endloop
  endfacet
  facet normal 0 0 1
    outer loop
      vertex 71 46 13
      vertex 71 41 13
      vertex 71.2588 40.9659 13
    endloop
  endfacet
  facet normal -0 0 1
    outer loop
      vertex 68.5 46 13
      vertex 71 41 13
      vertex 71 46 13
    endloop
  endfacet
  facet normal 0 0 1
    outer loop
      vertex 71 41 13
      vertex 68.5 46 13
      vertex 68.5 41 13
    endloop
  endfacet
  facet normal 0 0 1
    outer loop
      vertex 76.1962 -3 13
      vertex 72.866 -1.5 13
      vertex 75.2426 -4.24265 13
    endloop
  endfacet
  facet normal -0 0 1
    outer loop
      vertex 72.7071 -1.70711 13
      vertex 75.2426 -4.24265 13
      vertex 72.866 -1.5 13
    endloop
  endfacet
  facet normal -0 0 1
    outer loop
      vertex 72.5 -1.86602 13
      vertex 75.2426 -4.24265 13
      vertex 72.7071 -1.70711 13
    endloop
  endfacet
  facet normal 0 0 1
    outer loop
      vertex 75.2426 -4.24265 13
      vertex 72.5 -1.86602 13
      vertex 74 -5.19615 13
    endloop
  endfacet
  facet normal -0 0 1
    outer loop
      vertex 72.2588 -1.96593 13
      vertex 74 -5.19615 13
      vertex 72.5 -1.86602 13
    endloop
  endfacet
  facet normal 0 0 1
    outer loop
      vertex 74 -5.19615 13
      vertex 72.2588 -1.96593 13
      vertex 72.5529 -5.79555 13
    endloop
  endfacet
  facet normal -0 0 1
    outer loop
      vertex 72 -2 13
      vertex 72.5529 -5.79555 13
      vertex 72.2588 -1.96593 13
    endloop
  endfacet
  facet normal 0 0 1
    outer loop
      vertex 71.7412 -1.96593 13
      vertex 72.5529 -5.79555 13
      vertex 72 -2 13
    endloop
  endfacet
  facet normal 0 0 1
    outer loop
      vertex 71 -6 13
      vertex 71.7412 -1.96593 13
      vertex 71.5 -1.86602 13
    endloop
  endfacet
  facet normal 0 0 1
    outer loop
      vertex 71 -6 13
      vertex 71.5 -1.86602 13
      vertex 71.2929 -1.70711 13
    endloop
  endfacet
  facet normal 0 0 1
    outer loop
      vertex 67 -1 13
      vertex 71.2929 -1.70711 13
      vertex 71.134 -1.5 13
    endloop
  endfacet
  facet normal 0 0 1
    outer loop
      vertex 67 -1 13
      vertex 71.134 -1.5 13
      vertex 71.0341 -1.25882 13
    endloop
  endfacet
  facet normal 0 0 1
    outer loop
      vertex 71.7412 -1.96593 13
      vertex 71 -6 13
      vertex 72.5529 -5.79555 13
    endloop
  endfacet
  facet normal -0 0 1
    outer loop
      vertex 67 -1 13
      vertex 71.0341 -1.25882 13
      vertex 71 -0.999999 13
    endloop
  endfacet
  facet normal 0 0 1
    outer loop
      vertex 72.5 -0.133974 13
      vertex 72 4 13
      vertex 72.2588 -0.0340738 13
    endloop
  endfacet
  facet normal 0 0 1
    outer loop
      vertex 72 4 13
      vertex 72 0 13
      vertex 72.2588 -0.0340738 13
    endloop
  endfacet
  facet normal 0 0 1
    outer loop
      vertex 72 4 13
      vertex 71.7412 -0.0340738 13
      vertex 72 0 13
    endloop
  endfacet
  facet normal 0 0 1
    outer loop
      vertex 72 4 13
      vertex 71.5 -0.133974 13
      vertex 71.7412 -0.0340738 13
    endloop
  endfacet
  facet normal 0 0 1
    outer loop
      vertex 72 4 13
      vertex 71.2929 -0.292892 13
      vertex 71.5 -0.133974 13
    endloop
  endfacet
  facet normal 0 0 1
    outer loop
      vertex 67 -1 13
      vertex 71.2929 -0.292892 13
      vertex 72 4 13
    endloop
  endfacet
  facet normal 0 0 1
    outer loop
      vertex 71.2929 -0.292892 13
      vertex 67 -1 13
      vertex 71.134 -0.5 13
    endloop
  endfacet
  facet normal 0 0 1
    outer loop
      vertex 71.134 -0.5 13
      vertex 67 -1 13
      vertex 71.0341 -0.74118 13
    endloop
  endfacet
  facet normal 0 0 1
    outer loop
      vertex 67 -1 13
      vertex 71 -0.999999 13
      vertex 71.0341 -0.74118 13
    endloop
  endfacet
  facet normal 0 0 1
    outer loop
      vertex 71.2929 -1.70711 13
      vertex 67 -1 13
      vertex 71 -6 13
    endloop
  endfacet
  facet normal 0 0 1
    outer loop
      vertex 50.4 -6 13
      vertex 67 -1 13
      vertex 50.4 -1 13
    endloop
  endfacet
  facet normal 0 0 1
    outer loop
      vertex 67 -1 13
      vertex 50.4 -6 13
      vertex 71 -6 13
    endloop
  endfacet
  facet normal 0 0 1
    outer loop
      vertex 4 41 13
      vertex -0.0340738 41.2588 13
      vertex 0 41 13
    endloop
  endfacet
  facet normal 0 0 1
    outer loop
      vertex 4 41 13
      vertex -0.133974 41.5 13
      vertex -0.0340738 41.2588 13
    endloop
  endfacet
  facet normal 0 0 1
    outer loop
      vertex 4 41 13
      vertex -0.292892 41.7071 13
      vertex -0.133974 41.5 13
    endloop
  endfacet
  facet normal 0 0 1
    outer loop
      vertex 0 46 13
      vertex -0.499999 41.866 13
      vertex -0.292892 41.7071 13
    endloop
  endfacet
  facet normal 0 0 1
    outer loop
      vertex 0 46 13
      vertex -0.74118 41.9659 13
      vertex -0.499999 41.866 13
    endloop
  endfacet
  facet normal -0 0 1
    outer loop
      vertex -1.55292 45.7955 13
      vertex -0.74118 41.9659 13
      vertex 0 46 13
    endloop
  endfacet
  facet normal 0 0 1
    outer loop
      vertex -0.74118 41.9659 13
      vertex -1.55292 45.7955 13
      vertex -0.999999 42 13
    endloop
  endfacet
  facet normal 0 0 1
    outer loop
      vertex -0.999999 42 13
      vertex -1.55292 45.7955 13
      vertex -1.25882 41.9659 13
    endloop
  endfacet
  facet normal -0 0 1
    outer loop
      vertex -3 45.1962 13
      vertex -1.25882 41.9659 13
      vertex -1.55292 45.7955 13
    endloop
  endfacet
  facet normal 0 0 1
    outer loop
      vertex -1.25882 41.9659 13
      vertex -3 45.1962 13
      vertex -1.5 41.866 13
    endloop
  endfacet
  facet normal -0 0 1
    outer loop
      vertex -4.24265 44.2426 13
      vertex -1.5 41.866 13
      vertex -3 45.1962 13
    endloop
  endfacet
  facet normal 0 0 1
    outer loop
      vertex -1.5 41.866 13
      vertex -4.24265 44.2426 13
      vertex -1.70711 41.7071 13
    endloop
  endfacet
  facet normal 0 0 1
    outer loop
      vertex -1.70711 41.7071 13
      vertex -4.24265 44.2426 13
      vertex -1.86602 41.5 13
    endloop
  endfacet
  facet normal -0 0 1
    outer loop
      vertex -5.19615 43 13
      vertex -1.86602 41.5 13
      vertex -4.24265 44.2426 13
    endloop
  endfacet
  facet normal 0 0 1
    outer loop
      vertex 57.5 46 13
      vertex 4 41 13
      vertex 57.5 41 13
    endloop
  endfacet
  facet normal -0 0 1
    outer loop
      vertex 0 46 13
      vertex 4 41 13
      vertex 57.5 46 13
    endloop
  endfacet
  facet normal -0 0 1
    outer loop
      vertex -0.292892 41.7071 13
      vertex 4 41 13
      vertex 0 46 13
    endloop
  endfacet
  facet normal 0 0 1
    outer loop
      vertex -0.0340738 40.7412 13
      vertex 4 41 13
      vertex 0 41 13
    endloop
  endfacet
  facet normal 0 0 1
    outer loop
      vertex -0.133974 40.5 13
      vertex 4 41 13
      vertex -0.0340738 40.7412 13
    endloop
  endfacet
  facet normal 0 0 1
    outer loop
      vertex -0.292892 40.2929 13
      vertex 4 41 13
      vertex -0.133974 40.5 13
    endloop
  endfacet
  facet normal 0 0 1
    outer loop
      vertex -1 36 13
      vertex -0.292892 40.2929 13
      vertex -0.5 40.134 13
    endloop
  endfacet
  facet normal 0 0 1
    outer loop
      vertex -1 36 13
      vertex -0.5 40.134 13
      vertex -0.74118 40.0341 13
    endloop
  endfacet
  facet normal -0 0 1
    outer loop
      vertex -0.292892 40.2929 13
      vertex -1 36 13
      vertex 4 41 13
    endloop
  endfacet
  facet normal -0 0 1
    outer loop
      vertex -1 40 13
      vertex -1 36 13
      vertex -0.74118 40.0341 13
    endloop
  endfacet
  facet normal 0 0 1
    outer loop
      vertex -1.25882 40.0341 13
      vertex -1 36 13
      vertex -1 40 13
    endloop
  endfacet
  facet normal 0 0 1
    outer loop
      vertex -1.5 40.134 13
      vertex -1 36 13
      vertex -1.25882 40.0341 13
    endloop
  endfacet
  facet normal -0 0 1
    outer loop
      vertex 0 -1 13
      vertex 29.4 -6 13
      vertex 29.4 -1 13
    endloop
  endfacet
  facet normal 0 0 1
    outer loop
      vertex 0 -1 13
      vertex 0 -6 13
      vertex 29.4 -6 13
    endloop
  endfacet
  facet normal 0 0 1
    outer loop
      vertex -0.25882 -0.965927 13
      vertex 0 -6 13
      vertex 0 -1 13
    endloop
  endfacet
  facet normal 0 0 1
    outer loop
      vertex -1.55292 -5.79555 13
      vertex -0.25882 -0.965927 13
      vertex -0.5 -0.866028 13
    endloop
  endfacet
  facet normal 0 0 1
    outer loop
      vertex -3 -5.19615 13
      vertex -0.5 -0.866028 13
      vertex -0.707108 -0.707108 13
    endloop
  endfacet
  facet normal 0 0 1
    outer loop
      vertex -4.24265 -4.24265 13
      vertex -0.707108 -0.707108 13
      vertex -0.866028 -0.5 13
    endloop
  endfacet
  facet normal 0 0 1
    outer loop
      vertex -5.19615 -3 13
      vertex -0.866028 -0.5 13
      vertex -0.965927 -0.25882 13
    endloop
  endfacet
  facet normal 0 0 1
    outer loop
      vertex -1.70711 40.2929 13
      vertex -1 36 13
      vertex -1.5 40.134 13
    endloop
  endfacet
  facet normal 0 0 1
    outer loop
      vertex -0.25882 -0.965927 13
      vertex -1.55292 -5.79555 13
      vertex 0 -6 13
    endloop
  endfacet
  facet normal 0 0 1
    outer loop
      vertex -5.79555 -1.55292 13
      vertex -0.965927 -0.25882 13
      vertex -1 0 13
    endloop
  endfacet
  facet normal 0 0 1
    outer loop
      vertex -6 0 13
      vertex -1 36 13
      vertex -6 40 13
    endloop
  endfacet
  facet normal 0 0 1
    outer loop
      vertex -1 36 13
      vertex -1.70711 40.2929 13
      vertex -6 40 13
    endloop
  endfacet
  facet normal 0 0 1
    outer loop
      vertex -6 40 13
      vertex -1.70711 40.2929 13
      vertex -1.86602 40.5 13
    endloop
  endfacet
  facet normal 0 0 1
    outer loop
      vertex -6 40 13
      vertex -1.86602 40.5 13
      vertex -1.96593 40.7412 13
    endloop
  endfacet
  facet normal 0 0 1
    outer loop
      vertex -5.79555 41.5529 13
      vertex -1.96593 40.7412 13
      vertex -2 41 13
    endloop
  endfacet
  facet normal 0 0 1
    outer loop
      vertex -1.86602 41.5 13
      vertex -5.19615 43 13
      vertex -1.96593 41.2588 13
    endloop
  endfacet
  facet normal 0 0 1
    outer loop
      vertex -1 36 13
      vertex -6 0 13
      vertex -1 0 13
    endloop
  endfacet
  facet normal -0 0 1
    outer loop
      vertex -5.79555 41.5529 13
      vertex -1.96593 41.2588 13
      vertex -5.19615 43 13
    endloop
  endfacet
  facet normal 0 -0 1
    outer loop
      vertex -5.79555 -1.55292 13
      vertex -1 0 13
      vertex -6 0 13
    endloop
  endfacet
  facet normal 0 0 1
    outer loop
      vertex -1.96593 41.2588 13
      vertex -5.79555 41.5529 13
      vertex -2 41 13
    endloop
  endfacet
  facet normal 0 0 1
    outer loop
      vertex -0.5 -0.866028 13
      vertex -3 -5.19615 13
      vertex -1.55292 -5.79555 13
    endloop
  endfacet
  facet normal 0 0 1
    outer loop
      vertex -1.96593 40.7412 13
      vertex -5.79555 41.5529 13
      vertex -6 40 13
    endloop
  endfacet
  facet normal 0 0 1
    outer loop
      vertex -0.707108 -0.707108 13
      vertex -4.24265 -4.24265 13
      vertex -3 -5.19615 13
    endloop
  endfacet
  facet normal 0 0 1
    outer loop
      vertex -0.866028 -0.5 13
      vertex -5.19615 -3 13
      vertex -4.24265 -4.24265 13
    endloop
  endfacet
  facet normal 0 0 1
    outer loop
      vertex -0.965927 -0.25882 13
      vertex -5.79555 -1.55292 13
      vertex -5.19615 -3 13
    endloop
  endfacet
  facet normal -0.608764 -0.793351 0
    outer loop
      vertex 71.5 40.866 0
      vertex 71.7071 40.7071 13
      vertex 71.5 40.866 13
    endloop
  endfacet
  facet normal -0.608764 -0.793351 -0
    outer loop
      vertex 71.7071 40.7071 13
      vertex 71.5 40.866 0
      vertex 71.7071 40.7071 0
    endloop
  endfacet
  facet normal 1 -0 0
    outer loop
      vertex -1 0 13
      vertex -1 36 0
      vertex -1 36 13
    endloop
  endfacet
  facet normal 1 0 0
    outer loop
      vertex -1 36 0
      vertex -1 0 13
      vertex -1 0 0
    endloop
  endfacet
  facet normal 0.38268 0.923881 -0
    outer loop
      vertex -0.25882 -0.965927 0
      vertex -0.5 -0.866028 13
      vertex -0.25882 -0.965927 13
    endloop
  endfacet
  facet normal 0.38268 0.923881 0
    outer loop
      vertex -0.5 -0.866028 13
      vertex -0.25882 -0.965927 0
      vertex -0.5 -0.866028 0
    endloop
  endfacet
  facet normal 0 1 -0
    outer loop
      vertex 29.4 -1 0
      vertex 0 -1 13
      vertex 29.4 -1 13
    endloop
  endfacet
  facet normal 0 1 0
    outer loop
      vertex 0 -1 13
      vertex 29.4 -1 0
      vertex 0 -1 0
    endloop
  endfacet
  facet normal 0 1 -0
    outer loop
      vertex 67 -1 0
      vertex 50.4 -1 13
      vertex 67 -1 13
    endloop
  endfacet
  facet normal 0 1 0
    outer loop
      vertex 50.4 -1 13
      vertex 67 -1 0
      vertex 50.4 -1 0
    endloop
  endfacet
  facet normal -0.130521 -0.991446 0
    outer loop
      vertex 71 41 0
      vertex 71.2588 40.9659 13
      vertex 71 41 13
    endloop
  endfacet
  facet normal -0.130521 -0.991446 -0
    outer loop
      vertex 71.2588 40.9659 13
      vertex 71 41 0
      vertex 71.2588 40.9659 0
    endloop
  endfacet
  facet normal -0.38268 -0.923881 0
    outer loop
      vertex 71.2588 40.9659 0
      vertex 71.5 40.866 13
      vertex 71.2588 40.9659 13
    endloop
  endfacet
  facet normal -0.38268 -0.923881 -0
    outer loop
      vertex 71.5 40.866 13
      vertex 71.2588 40.9659 0
      vertex 71.5 40.866 0
    endloop
  endfacet
  facet normal 0 -1 0
    outer loop
      vertex 4 41 13
      vertex 57.5 41 6
      vertex 57.5 41 13
    endloop
  endfacet
  facet normal 0 -1 0
    outer loop
      vertex 4 41 0
      vertex 57.5 41 6
      vertex 4 41 13
    endloop
  endfacet
  facet normal 0 -1 -0
    outer loop
      vertex 57.5 41 6
      vertex 4 41 0
      vertex 57.6874 41 4.5765
    endloop
  endfacet
  facet normal 0 -1 -0
    outer loop
      vertex 57.6874 41 4.5765
      vertex 4 41 0
      vertex 58.2369 41 3.25
    endloop
  endfacet
  facet normal 0 -1 -0
    outer loop
      vertex 58.2369 41 3.25
      vertex 4 41 0
      vertex 59.1109 41 2.11091
    endloop
  endfacet
  facet normal 0 -1 -0
    outer loop
      vertex 59.1109 41 2.11091
      vertex 4 41 0
      vertex 60.25 41 1.23686
    endloop
  endfacet
  facet normal 0 -1 -0
    outer loop
      vertex 61.5765 41 0.687408
      vertex 4 41 0
      vertex 63 41 0.5
    endloop
  endfacet
  facet normal 0 -1 -0
    outer loop
      vertex 60.25 41 1.23686
      vertex 4 41 0
      vertex 61.5765 41 0.687408
    endloop
  endfacet
  facet normal 0 -1 0
    outer loop
      vertex 68.5 41 6
      vertex 71 41 13
      vertex 68.5 41 13
    endloop
  endfacet
  facet normal 0 -1 0
    outer loop
      vertex 71 41 0
      vertex 68.5 41 6
      vertex 68.3126 41 4.5765
    endloop
  endfacet
  facet normal 0 -1 0
    outer loop
      vertex 68.5 41 6
      vertex 71 41 0
      vertex 71 41 13
    endloop
  endfacet
  facet normal 0 -1 0
    outer loop
      vertex 67.7631 41 3.25
      vertex 71 41 0
      vertex 68.3126 41 4.5765
    endloop
  endfacet
  facet normal 0 -1 0
    outer loop
      vertex 66.8891 41 2.11091
      vertex 71 41 0
      vertex 67.7631 41 3.25
    endloop
  endfacet
  facet normal 0 -1 0
    outer loop
      vertex 65.75 41 1.23686
      vertex 71 41 0
      vertex 66.8891 41 2.11091
    endloop
  endfacet
  facet normal 0 -1 0
    outer loop
      vertex 64.4235 41 0.687408
      vertex 71 41 0
      vertex 65.75 41 1.23686
    endloop
  endfacet
  facet normal 0 -1 0
    outer loop
      vertex 63 41 0.5
      vertex 71 41 0
      vertex 64.4235 41 0.687408
    endloop
  endfacet
  facet normal 0 -1 0
    outer loop
      vertex 71 41 0
      vertex 63 41 0.5
      vertex 4 41 0
    endloop
  endfacet
  facet normal 0.608764 0.793351 -0
    outer loop
      vertex -0.5 -0.866028 0
      vertex -0.707108 -0.707108 13
      vertex -0.5 -0.866028 13
    endloop
  endfacet
  facet normal 0.608764 0.793351 0
    outer loop
      vertex -0.707108 -0.707108 13
      vertex -0.5 -0.866028 0
      vertex -0.707108 -0.707108 0
    endloop
  endfacet
  facet normal 0.130521 0.991446 -0
    outer loop
      vertex 0 -1 0
      vertex -0.25882 -0.965927 13
      vertex 0 -1 13
    endloop
  endfacet
  facet normal 0.130521 0.991446 0
    outer loop
      vertex -0.25882 -0.965927 13
      vertex 0 -1 0
      vertex -0.25882 -0.965927 0
    endloop
  endfacet
  facet normal -0.923881 -0.38268 0
    outer loop
      vertex 71.9659 40.2588 0
      vertex 71.866 40.5 13
      vertex 71.866 40.5 0
    endloop
  endfacet
  facet normal -0.923881 -0.38268 0
    outer loop
      vertex 71.866 40.5 13
      vertex 71.9659 40.2588 0
      vertex 71.9659 40.2588 13
    endloop
  endfacet
  facet normal -0.991446 -0.130521 0
    outer loop
      vertex 72 40 0
      vertex 71.9659 40.2588 13
      vertex 71.9659 40.2588 0
    endloop
  endfacet
  facet normal -0.991446 -0.130521 0
    outer loop
      vertex 71.9659 40.2588 13
      vertex 72 40 0
      vertex 72 40 13
    endloop
  endfacet
  facet normal -0.793351 -0.608764 0
    outer loop
      vertex 71.866 40.5 0
      vertex 71.7071 40.7071 13
      vertex 71.7071 40.7071 0
    endloop
  endfacet
  facet normal -0.793351 -0.608764 0
    outer loop
      vertex 71.7071 40.7071 13
      vertex 71.866 40.5 0
      vertex 71.866 40.5 13
    endloop
  endfacet
  facet normal -1 0 0
    outer loop
      vertex 72 4 0
      vertex 72 40 13
      vertex 72 40 0
    endloop
  endfacet
  facet normal -1 -0 0
    outer loop
      vertex 72 40 13
      vertex 72 4 0
      vertex 72 4 13
    endloop
  endfacet
  facet normal 0.923881 0.38268 0
    outer loop
      vertex -0.866028 -0.5 13
      vertex -0.965927 -0.25882 0
      vertex -0.965927 -0.25882 13
    endloop
  endfacet
  facet normal 0.923881 0.38268 0
    outer loop
      vertex -0.965927 -0.25882 0
      vertex -0.866028 -0.5 13
      vertex -0.866028 -0.5 0
    endloop
  endfacet
  facet normal 0.991446 0.130521 0
    outer loop
      vertex -0.965927 -0.25882 13
      vertex -1 0 0
      vertex -1 0 13
    endloop
  endfacet
  facet normal 0.991446 0.130521 0
    outer loop
      vertex -1 0 0
      vertex -0.965927 -0.25882 13
      vertex -0.965927 -0.25882 0
    endloop
  endfacet
  facet normal 0.793351 0.608764 0
    outer loop
      vertex -0.707108 -0.707108 13
      vertex -0.866028 -0.5 0
      vertex -0.866028 -0.5 13
    endloop
  endfacet
  facet normal 0.793351 0.608764 0
    outer loop
      vertex -0.866028 -0.5 0
      vertex -0.707108 -0.707108 13
      vertex -0.707108 -0.707108 0
    endloop
  endfacet
  facet normal -0.991445 0 0.130527
    outer loop
      vertex 68.3126 41 4.5765
      vertex 68.5 46 6
      vertex 68.3126 46 4.5765
    endloop
  endfacet
  facet normal -0.991445 0 0.130527
    outer loop
      vertex 68.5 46 6
      vertex 68.3126 41 4.5765
      vertex 68.5 41 6
    endloop
  endfacet
  facet normal 0.991445 -0 0.130527
    outer loop
      vertex 57.5 41 6
      vertex 57.6874 46 4.5765
      vertex 57.5 46 6
    endloop
  endfacet
  facet normal 0.991445 0 0.130527
    outer loop
      vertex 57.6874 46 4.5765
      vertex 57.5 41 6
      vertex 57.6874 41 4.5765
    endloop
  endfacet
  facet normal -0.130526 0 0.991445
    outer loop
      vertex 63 46 0.5
      vertex 64.4235 41 0.687408
      vertex 64.4235 46 0.687408
    endloop
  endfacet
  facet normal -0.130526 0 0.991445
    outer loop
      vertex 64.4235 41 0.687408
      vertex 63 46 0.5
      vertex 63 41 0.5
    endloop
  endfacet
  facet normal -0.793353 0 0.608762
    outer loop
      vertex 66.8891 41 2.11091
      vertex 67.7631 46 3.25
      vertex 66.8891 46 2.11091
    endloop
  endfacet
  facet normal -0.793353 0 0.608762
    outer loop
      vertex 67.7631 46 3.25
      vertex 66.8891 41 2.11091
      vertex 67.7631 41 3.25
    endloop
  endfacet
  facet normal -0.923879 0 0.382684
    outer loop
      vertex 67.7631 41 3.25
      vertex 68.3126 46 4.5765
      vertex 67.7631 46 3.25
    endloop
  endfacet
  facet normal -0.923879 0 0.382684
    outer loop
      vertex 68.3126 46 4.5765
      vertex 67.7631 41 3.25
      vertex 68.3126 41 4.5765
    endloop
  endfacet
  facet normal -0.608762 0 0.793353
    outer loop
      vertex 65.75 46 1.23686
      vertex 66.8891 41 2.11091
      vertex 66.8891 46 2.11091
    endloop
  endfacet
  facet normal -0.608762 0 0.793353
    outer loop
      vertex 66.8891 41 2.11091
      vertex 65.75 46 1.23686
      vertex 65.75 41 1.23686
    endloop
  endfacet
  facet normal 0.608761 0 0.793354
    outer loop
      vertex 59.1109 46 2.11091
      vertex 60.25 41 1.23686
      vertex 60.25 46 1.23686
    endloop
  endfacet
  facet normal 0.608761 0 0.793354
    outer loop
      vertex 60.25 41 1.23686
      vertex 59.1109 46 2.11091
      vertex 59.1109 41 2.11091
    endloop
  endfacet
  facet normal 0.130527 0 0.991445
    outer loop
      vertex 61.5765 46 0.687408
      vertex 63 41 0.5
      vertex 63 46 0.5
    endloop
  endfacet
  facet normal 0.130527 0 0.991445
    outer loop
      vertex 63 41 0.5
      vertex 61.5765 46 0.687408
      vertex 61.5765 41 0.687408
    endloop
  endfacet
  facet normal -0.382684 0 0.923879
    outer loop
      vertex 64.4235 46 0.687408
      vertex 65.75 41 1.23686
      vertex 65.75 46 1.23686
    endloop
  endfacet
  facet normal -0.382684 0 0.923879
    outer loop
      vertex 65.75 41 1.23686
      vertex 64.4235 46 0.687408
      vertex 64.4235 41 0.687408
    endloop
  endfacet
  facet normal 0.793354 -0 0.60876
    outer loop
      vertex 58.2369 41 3.25
      vertex 59.1109 46 2.11091
      vertex 58.2369 46 3.25
    endloop
  endfacet
  facet normal 0.793354 0 0.60876
    outer loop
      vertex 59.1109 46 2.11091
      vertex 58.2369 41 3.25
      vertex 59.1109 41 2.11091
    endloop
  endfacet
  facet normal 0.923879 -0 0.382684
    outer loop
      vertex 57.6874 41 4.5765
      vertex 58.2369 46 3.25
      vertex 57.6874 46 4.5765
    endloop
  endfacet
  facet normal 0.923879 0 0.382684
    outer loop
      vertex 58.2369 46 3.25
      vertex 57.6874 41 4.5765
      vertex 58.2369 41 3.25
    endloop
  endfacet
  facet normal 0.382683 0 0.92388
    outer loop
      vertex 60.25 46 1.23686
      vertex 61.5765 41 0.687408
      vertex 61.5765 46 0.687408
    endloop
  endfacet
  facet normal 0.382683 0 0.92388
    outer loop
      vertex 61.5765 41 0.687408
      vertex 60.25 46 1.23686
      vertex 60.25 41 1.23686
    endloop
  endfacet
  facet normal 1 -0 0
    outer loop
      vertex 57.5 41 13
      vertex 57.5 46 6
      vertex 57.5 46 13
    endloop
  endfacet
  facet normal 1 0 0
    outer loop
      vertex 57.5 46 6
      vertex 57.5 41 13
      vertex 57.5 41 6
    endloop
  endfacet
  facet normal -1 0 0
    outer loop
      vertex 68.5 41 6
      vertex 68.5 46 13
      vertex 68.5 46 6
    endloop
  endfacet
  facet normal -1 -0 0
    outer loop
      vertex 68.5 46 13
      vertex 68.5 41 6
      vertex 68.5 41 13
    endloop
  endfacet
  facet normal 1 -0 0
    outer loop
      vertex 29.4 -6 13
      vertex 29.4 -1 0
      vertex 29.4 -1 13
    endloop
  endfacet
  facet normal 1 0 0
    outer loop
      vertex 29.4 -1 0
      vertex 29.4 -6 13
      vertex 29.4 -6 0
    endloop
  endfacet
  facet normal -1 0 0
    outer loop
      vertex 50.4 -6 0
      vertex 50.4 -1 13
      vertex 50.4 -1 0
    endloop
  endfacet
  facet normal -1 -0 0
    outer loop
      vertex 50.4 -1 13
      vertex 50.4 -6 0
      vertex 50.4 -6 13
    endloop
  endfacet
  facet normal 0.707107 -0.707107 0
    outer loop
      vertex -1 36 13
      vertex 4 41 0
      vertex 4 41 13
    endloop
  endfacet
  facet normal 0.707107 -0.707107 0
    outer loop
      vertex 4 41 0
      vertex -1 36 13
      vertex -1 36 0
    endloop
  endfacet
  facet normal -0.707107 0.707107 0
    outer loop
      vertex 67 -1 0
      vertex 72 4 13
      vertex 72 4 0
    endloop
  endfacet
  facet normal -0.707107 0.707107 0
    outer loop
      vertex 72 4 13
      vertex 67 -1 0
      vertex 67 -1 13
    endloop
  endfacet
  facet normal -0.991446 -0.130521 0
    outer loop
      vertex 73 -1 0
      vertex 72.9659 -0.74118 13
      vertex 72.9659 -0.74118 0
    endloop
  endfacet
  facet normal -0.991446 -0.130521 0
    outer loop
      vertex 72.9659 -0.74118 13
      vertex 73 -1 0
      vertex 73 -1 13
    endloop
  endfacet
  facet normal 0.130525 -0.991445 0
    outer loop
      vertex 71.7412 -0.0340738 0
      vertex 72 0 13
      vertex 71.7412 -0.0340738 13
    endloop
  endfacet
  facet normal 0.130525 -0.991445 0
    outer loop
      vertex 72 0 13
      vertex 71.7412 -0.0340738 0
      vertex 72 0 0
    endloop
  endfacet
  facet normal -0.130528 0.991445 0
    outer loop
      vertex 72.2588 -1.96593 0
      vertex 72 -2 13
      vertex 72.2588 -1.96593 13
    endloop
  endfacet
  facet normal -0.130528 0.991445 0
    outer loop
      vertex 72 -2 13
      vertex 72.2588 -1.96593 0
      vertex 72 -2 0
    endloop
  endfacet
  facet normal -0.382684 0.923879 0
    outer loop
      vertex 72.5 -1.86602 0
      vertex 72.2588 -1.96593 13
      vertex 72.5 -1.86602 13
    endloop
  endfacet
  facet normal -0.382684 0.923879 0
    outer loop
      vertex 72.2588 -1.96593 13
      vertex 72.5 -1.86602 0
      vertex 72.2588 -1.96593 0
    endloop
  endfacet
  facet normal -0.608759 -0.793355 0
    outer loop
      vertex 72.5 -0.133974 0
      vertex 72.7071 -0.292892 13
      vertex 72.5 -0.133974 13
    endloop
  endfacet
  facet normal -0.608759 -0.793355 -0
    outer loop
      vertex 72.7071 -0.292892 13
      vertex 72.5 -0.133974 0
      vertex 72.7071 -0.292892 0
    endloop
  endfacet
  facet normal -0.382684 -0.923879 0
    outer loop
      vertex 72.2588 -0.0340738 0
      vertex 72.5 -0.133974 13
      vertex 72.2588 -0.0340738 13
    endloop
  endfacet
  facet normal -0.382684 -0.923879 -0
    outer loop
      vertex 72.5 -0.133974 13
      vertex 72.2588 -0.0340738 0
      vertex 72.5 -0.133974 0
    endloop
  endfacet
  facet normal 0.793351 -0.608764 0
    outer loop
      vertex 71.134 -0.5 13
      vertex 71.2929 -0.292892 0
      vertex 71.2929 -0.292892 13
    endloop
  endfacet
  facet normal 0.793351 -0.608764 0
    outer loop
      vertex 71.2929 -0.292892 0
      vertex 71.134 -0.5 13
      vertex 71.134 -0.5 0
    endloop
  endfacet
  facet normal 0.923881 -0.38268 0
    outer loop
      vertex 71.0341 -0.74118 13
      vertex 71.134 -0.5 0
      vertex 71.134 -0.5 13
    endloop
  endfacet
  facet normal 0.923881 -0.38268 0
    outer loop
      vertex 71.134 -0.5 0
      vertex 71.0341 -0.74118 13
      vertex 71.0341 -0.74118 0
    endloop
  endfacet
  facet normal 0.608759 -0.793355 0
    outer loop
      vertex 71.2929 -0.292892 0
      vertex 71.5 -0.133974 13
      vertex 71.2929 -0.292892 13
    endloop
  endfacet
  facet normal 0.608759 -0.793355 0
    outer loop
      vertex 71.5 -0.133974 13
      vertex 71.2929 -0.292892 0
      vertex 71.5 -0.133974 0
    endloop
  endfacet
  facet normal 0.608759 0.793355 -0
    outer loop
      vertex 71.5 -1.86602 0
      vertex 71.2929 -1.70711 13
      vertex 71.5 -1.86602 13
    endloop
  endfacet
  facet normal 0.608759 0.793355 0
    outer loop
      vertex 71.2929 -1.70711 13
      vertex 71.5 -1.86602 0
      vertex 71.2929 -1.70711 0
    endloop
  endfacet
  facet normal -0.793351 -0.608764 0
    outer loop
      vertex 72.866 -0.5 0
      vertex 72.7071 -0.292892 13
      vertex 72.7071 -0.292892 0
    endloop
  endfacet
  facet normal -0.793351 -0.608764 0
    outer loop
      vertex 72.7071 -0.292892 13
      vertex 72.866 -0.5 0
      vertex 72.866 -0.5 13
    endloop
  endfacet
  facet normal -0.923881 -0.38268 0
    outer loop
      vertex 72.9659 -0.74118 0
      vertex 72.866 -0.5 13
      vertex 72.866 -0.5 0
    endloop
  endfacet
  facet normal -0.923881 -0.38268 0
    outer loop
      vertex 72.866 -0.5 13
      vertex 72.9659 -0.74118 0
      vertex 72.9659 -0.74118 13
    endloop
  endfacet
  facet normal -0.130525 -0.991445 0
    outer loop
      vertex 72 0 0
      vertex 72.2588 -0.0340738 13
      vertex 72 0 13
    endloop
  endfacet
  facet normal -0.130525 -0.991445 -0
    outer loop
      vertex 72.2588 -0.0340738 13
      vertex 72 0 0
      vertex 72.2588 -0.0340738 0
    endloop
  endfacet
  facet normal 0.991445 -0.130522 0
    outer loop
      vertex 71 -0.999999 13
      vertex 71.0341 -0.74118 0
      vertex 71.0341 -0.74118 13
    endloop
  endfacet
  facet normal 0.991445 -0.130522 0
    outer loop
      vertex 71.0341 -0.74118 0
      vertex 71 -0.999999 13
      vertex 71 -0.999999 0
    endloop
  endfacet
  facet normal 0.382684 -0.923879 0
    outer loop
      vertex 71.5 -0.133974 0
      vertex 71.7412 -0.0340738 13
      vertex 71.5 -0.133974 13
    endloop
  endfacet
  facet normal 0.382684 -0.923879 0
    outer loop
      vertex 71.7412 -0.0340738 13
      vertex 71.5 -0.133974 0
      vertex 71.7412 -0.0340738 0
    endloop
  endfacet
  facet normal -0.991445 0.130522 0
    outer loop
      vertex 72.9659 -1.25882 0
      vertex 73 -1 13
      vertex 73 -1 0
    endloop
  endfacet
  facet normal -0.991445 0.130522 0
    outer loop
      vertex 73 -1 13
      vertex 72.9659 -1.25882 0
      vertex 72.9659 -1.25882 13
    endloop
  endfacet
  facet normal -0.923881 0.382679 0
    outer loop
      vertex 72.866 -1.5 0
      vertex 72.9659 -1.25882 13
      vertex 72.9659 -1.25882 0
    endloop
  endfacet
  facet normal -0.923881 0.382679 0
    outer loop
      vertex 72.9659 -1.25882 13
      vertex 72.866 -1.5 0
      vertex 72.866 -1.5 13
    endloop
  endfacet
  facet normal 0.991446 0.130521 0
    outer loop
      vertex 71.0341 -1.25882 13
      vertex 71 -0.999999 0
      vertex 71 -0.999999 13
    endloop
  endfacet
  facet normal 0.991446 0.130521 0
    outer loop
      vertex 71 -0.999999 0
      vertex 71.0341 -1.25882 13
      vertex 71.0341 -1.25882 0
    endloop
  endfacet
  facet normal -0.608759 0.793355 0
    outer loop
      vertex 72.7071 -1.70711 0
      vertex 72.5 -1.86602 13
      vertex 72.7071 -1.70711 13
    endloop
  endfacet
  facet normal -0.608759 0.793355 0
    outer loop
      vertex 72.5 -1.86602 13
      vertex 72.7071 -1.70711 0
      vertex 72.5 -1.86602 0
    endloop
  endfacet
  facet normal 0.130528 0.991445 -0
    outer loop
      vertex 72 -2 0
      vertex 71.7412 -1.96593 13
      vertex 72 -2 13
    endloop
  endfacet
  facet normal 0.130528 0.991445 0
    outer loop
      vertex 71.7412 -1.96593 13
      vertex 72 -2 0
      vertex 71.7412 -1.96593 0
    endloop
  endfacet
  facet normal 0.382684 0.923879 -0
    outer loop
      vertex 71.7412 -1.96593 0
      vertex 71.5 -1.86602 13
      vertex 71.7412 -1.96593 13
    endloop
  endfacet
  facet normal 0.382684 0.923879 0
    outer loop
      vertex 71.5 -1.86602 13
      vertex 71.7412 -1.96593 0
      vertex 71.5 -1.86602 0
    endloop
  endfacet
  facet normal 0.793351 0.608764 0
    outer loop
      vertex 71.2929 -1.70711 13
      vertex 71.134 -1.5 0
      vertex 71.134 -1.5 13
    endloop
  endfacet
  facet normal 0.793351 0.608764 0
    outer loop
      vertex 71.134 -1.5 0
      vertex 71.2929 -1.70711 13
      vertex 71.2929 -1.70711 0
    endloop
  endfacet
  facet normal 0.923881 0.38268 0
    outer loop
      vertex 71.134 -1.5 13
      vertex 71.0341 -1.25882 0
      vertex 71.0341 -1.25882 13
    endloop
  endfacet
  facet normal 0.923881 0.38268 0
    outer loop
      vertex 71.0341 -1.25882 0
      vertex 71.134 -1.5 13
      vertex 71.134 -1.5 0
    endloop
  endfacet
  facet normal -0.79335 0.608766 0
    outer loop
      vertex 72.7071 -1.70711 0
      vertex 72.866 -1.5 13
      vertex 72.866 -1.5 0
    endloop
  endfacet
  facet normal -0.79335 0.608766 0
    outer loop
      vertex 72.866 -1.5 13
      vertex 72.7071 -1.70711 0
      vertex 72.7071 -1.70711 13
    endloop
  endfacet
  facet normal -0.991445 -0.130525 0
    outer loop
      vertex 0 41 0
      vertex -0.0340738 41.2588 13
      vertex -0.0340738 41.2588 0
    endloop
  endfacet
  facet normal -0.991445 -0.130525 0
    outer loop
      vertex -0.0340738 41.2588 13
      vertex 0 41 0
      vertex 0 41 13
    endloop
  endfacet
  facet normal 0.991445 -0.130528 0
    outer loop
      vertex -2 41 13
      vertex -1.96593 41.2588 0
      vertex -1.96593 41.2588 13
    endloop
  endfacet
  facet normal 0.991445 -0.130528 0
    outer loop
      vertex -1.96593 41.2588 0
      vertex -2 41 13
      vertex -2 41 0
    endloop
  endfacet
  facet normal -0.130522 -0.991445 0
    outer loop
      vertex -0.999999 42 0
      vertex -0.74118 41.9659 13
      vertex -0.999999 42 13
    endloop
  endfacet
  facet normal -0.130522 -0.991445 -0
    outer loop
      vertex -0.74118 41.9659 13
      vertex -0.999999 42 0
      vertex -0.74118 41.9659 0
    endloop
  endfacet
  facet normal -0.130521 0.991446 0
    outer loop
      vertex -0.74118 40.0341 0
      vertex -1 40 13
      vertex -0.74118 40.0341 13
    endloop
  endfacet
  facet normal -0.130521 0.991446 0
    outer loop
      vertex -1 40 13
      vertex -0.74118 40.0341 0
      vertex -1 40 0
    endloop
  endfacet
  facet normal -0.793355 -0.608759 0
    outer loop
      vertex -0.133974 41.5 0
      vertex -0.292892 41.7071 13
      vertex -0.292892 41.7071 0
    endloop
  endfacet
  facet normal -0.793355 -0.608759 0
    outer loop
      vertex -0.292892 41.7071 13
      vertex -0.133974 41.5 0
      vertex -0.133974 41.5 13
    endloop
  endfacet
  facet normal -0.923879 -0.382684 0
    outer loop
      vertex -0.0340738 41.2588 0
      vertex -0.133974 41.5 13
      vertex -0.133974 41.5 0
    endloop
  endfacet
  facet normal -0.923879 -0.382684 0
    outer loop
      vertex -0.133974 41.5 13
      vertex -0.0340738 41.2588 0
      vertex -0.0340738 41.2588 13
    endloop
  endfacet
  facet normal -0.608757 -0.793357 0
    outer loop
      vertex -0.499999 41.866 0
      vertex -0.292892 41.7071 13
      vertex -0.499999 41.866 13
    endloop
  endfacet
  facet normal -0.608757 -0.793357 -0
    outer loop
      vertex -0.292892 41.7071 13
      vertex -0.499999 41.866 0
      vertex -0.292892 41.7071 0
    endloop
  endfacet
  facet normal 0.608755 -0.793358 0
    outer loop
      vertex -1.70711 41.7071 0
      vertex -1.5 41.866 13
      vertex -1.70711 41.7071 13
    endloop
  endfacet
  facet normal 0.608755 -0.793358 0
    outer loop
      vertex -1.5 41.866 13
      vertex -1.70711 41.7071 0
      vertex -1.5 41.866 0
    endloop
  endfacet
  facet normal 0.793355 -0.608759 0
    outer loop
      vertex -1.86602 41.5 13
      vertex -1.70711 41.7071 0
      vertex -1.70711 41.7071 13
    endloop
  endfacet
  facet normal 0.793355 -0.608759 0
    outer loop
      vertex -1.70711 41.7071 0
      vertex -1.86602 41.5 13
      vertex -1.86602 41.5 0
    endloop
  endfacet
  facet normal 0.130521 -0.991446 0
    outer loop
      vertex -1.25882 41.9659 0
      vertex -0.999999 42 13
      vertex -1.25882 41.9659 13
    endloop
  endfacet
  facet normal 0.130521 -0.991446 0
    outer loop
      vertex -0.999999 42 13
      vertex -1.25882 41.9659 0
      vertex -0.999999 42 0
    endloop
  endfacet
  facet normal -0.382692 -0.923876 0
    outer loop
      vertex -0.74118 41.9659 0
      vertex -0.499999 41.866 13
      vertex -0.74118 41.9659 13
    endloop
  endfacet
  facet normal -0.382692 -0.923876 -0
    outer loop
      vertex -0.499999 41.866 13
      vertex -0.74118 41.9659 0
      vertex -0.499999 41.866 0
    endloop
  endfacet
  facet normal 0.923879 -0.382684 0
    outer loop
      vertex -1.96593 41.2588 13
      vertex -1.86602 41.5 0
      vertex -1.86602 41.5 13
    endloop
  endfacet
  facet normal 0.923879 -0.382684 0
    outer loop
      vertex -1.86602 41.5 0
      vertex -1.96593 41.2588 13
      vertex -1.96593 41.2588 0
    endloop
  endfacet
  facet normal 0.382693 -0.923876 0
    outer loop
      vertex -1.5 41.866 0
      vertex -1.25882 41.9659 13
      vertex -1.5 41.866 13
    endloop
  endfacet
  facet normal 0.382693 -0.923876 0
    outer loop
      vertex -1.25882 41.9659 13
      vertex -1.5 41.866 0
      vertex -1.25882 41.9659 0
    endloop
  endfacet
  facet normal -0.991445 0.130525 0
    outer loop
      vertex -0.0340738 40.7412 0
      vertex 0 41 13
      vertex 0 41 0
    endloop
  endfacet
  facet normal -0.991445 0.130525 0
    outer loop
      vertex 0 41 13
      vertex -0.0340738 40.7412 0
      vertex -0.0340738 40.7412 13
    endloop
  endfacet
  facet normal -0.793355 0.608759 0
    outer loop
      vertex -0.292892 40.2929 0
      vertex -0.133974 40.5 13
      vertex -0.133974 40.5 0
    endloop
  endfacet
  facet normal -0.793355 0.608759 0
    outer loop
      vertex -0.133974 40.5 13
      vertex -0.292892 40.2929 0
      vertex -0.292892 40.2929 13
    endloop
  endfacet
  facet normal -0.923879 0.382684 0
    outer loop
      vertex -0.133974 40.5 0
      vertex -0.0340738 40.7412 13
      vertex -0.0340738 40.7412 0
    endloop
  endfacet
  facet normal -0.923879 0.382684 0
    outer loop
      vertex -0.0340738 40.7412 13
      vertex -0.133974 40.5 0
      vertex -0.133974 40.5 13
    endloop
  endfacet
  facet normal 0.923879 0.382684 0
    outer loop
      vertex -1.86602 40.5 13
      vertex -1.96593 40.7412 0
      vertex -1.96593 40.7412 13
    endloop
  endfacet
  facet normal 0.923879 0.382684 0
    outer loop
      vertex -1.96593 40.7412 0
      vertex -1.86602 40.5 13
      vertex -1.86602 40.5 0
    endloop
  endfacet
  facet normal 0.991445 0.130528 0
    outer loop
      vertex -1.96593 40.7412 13
      vertex -2 41 0
      vertex -2 41 13
    endloop
  endfacet
  facet normal 0.991445 0.130528 0
    outer loop
      vertex -2 41 0
      vertex -1.96593 40.7412 13
      vertex -1.96593 40.7412 0
    endloop
  endfacet
  facet normal 0.793355 0.608759 0
    outer loop
      vertex -1.70711 40.2929 13
      vertex -1.86602 40.5 0
      vertex -1.86602 40.5 13
    endloop
  endfacet
  facet normal 0.793355 0.608759 0
    outer loop
      vertex -1.86602 40.5 0
      vertex -1.70711 40.2929 13
      vertex -1.70711 40.2929 0
    endloop
  endfacet
  facet normal -0.38268 0.923881 0
    outer loop
      vertex -0.5 40.134 0
      vertex -0.74118 40.0341 13
      vertex -0.5 40.134 13
    endloop
  endfacet
  facet normal -0.38268 0.923881 0
    outer loop
      vertex -0.74118 40.0341 13
      vertex -0.5 40.134 0
      vertex -0.74118 40.0341 0
    endloop
  endfacet
  facet normal -0.608764 0.793351 0
    outer loop
      vertex -0.292892 40.2929 0
      vertex -0.5 40.134 13
      vertex -0.292892 40.2929 13
    endloop
  endfacet
  facet normal -0.608764 0.793351 0
    outer loop
      vertex -0.5 40.134 13
      vertex -0.292892 40.2929 0
      vertex -0.5 40.134 0
    endloop
  endfacet
  facet normal 0.382679 0.923881 -0
    outer loop
      vertex -1.25882 40.0341 0
      vertex -1.5 40.134 13
      vertex -1.25882 40.0341 13
    endloop
  endfacet
  facet normal 0.382679 0.923881 0
    outer loop
      vertex -1.5 40.134 13
      vertex -1.25882 40.0341 0
      vertex -1.5 40.134 0
    endloop
  endfacet
  facet normal 0.608766 0.79335 -0
    outer loop
      vertex -1.5 40.134 0
      vertex -1.70711 40.2929 13
      vertex -1.5 40.134 13
    endloop
  endfacet
  facet normal 0.608766 0.79335 0
    outer loop
      vertex -1.70711 40.2929 13
      vertex -1.5 40.134 0
      vertex -1.70711 40.2929 0
    endloop
  endfacet
  facet normal 0.130522 0.991445 -0
    outer loop
      vertex -1 40 0
      vertex -1.25882 40.0341 13
      vertex -1 40 13
    endloop
  endfacet
  facet normal 0.130522 0.991445 0
    outer loop
      vertex -1.25882 40.0341 13
      vertex -1 40 0
      vertex -1.25882 40.0341 0
    endloop
  endfacet
endsolid OpenSCAD_Model
